<svg width="111" height="15" viewBox="0 0 111 15" fill="none" xmlns="http://www.w3.org/2000/svg">
<path d="M2.23 14L0.757999 0.256H3.446L4.214 8.928L4.982 0.256H7.542L8.278 8.928L9.014 0.256H11.734L10.23 14H6.934L6.246 7.376L5.59 14H2.23ZM27.0126 14V9.472L24.8206 0.256H27.5406L28.3086 4.912L29.0766 0.256H31.7966L29.6046 9.472V14H27.0126ZM45.2892 14V0.256H48.0412V11.664H50.8732V14H45.2892ZM64.4486 14V0.256H69.9526V2.912H67.2486V5.584H69.8406V8.176H67.2486V11.328H70.1286V14H64.4486ZM87.1064 14.128C85.8584 14.128 84.957 13.8187 84.4024 13.2C83.8477 12.5813 83.5704 11.584 83.5704 10.208V8.864H86.2744V10.576C86.2744 11.2587 86.493 11.6 86.9304 11.6C87.1757 11.6 87.3464 11.5307 87.4424 11.392C87.5384 11.2427 87.5864 10.9973 87.5864 10.656C87.5864 10.208 87.533 9.84 87.4264 9.552C87.3197 9.25333 87.181 9.008 87.0104 8.816C86.8504 8.61333 86.557 8.304 86.1304 7.888L84.9464 6.704C84.029 5.808 83.5704 4.816 83.5704 3.728C83.5704 2.55467 83.837 1.664 84.3704 1.056C84.9144 0.437333 85.7037 0.127999 86.7384 0.127999C87.9757 0.127999 88.8664 0.458666 89.4104 1.12C89.9544 1.77067 90.2264 2.79467 90.2264 4.192H87.4264L87.4104 3.248C87.4104 3.06667 87.357 2.92267 87.2504 2.816C87.1544 2.70933 87.0157 2.656 86.8344 2.656C86.621 2.656 86.461 2.71467 86.3544 2.832C86.2477 2.94933 86.1944 3.10933 86.1944 3.312C86.1944 3.76 86.4504 4.224 86.9624 4.704L88.5624 6.24C88.9357 6.60267 89.245 6.94933 89.4904 7.28C89.7357 7.6 89.933 7.984 90.0824 8.432C90.2317 8.86933 90.3064 9.392 90.3064 10C90.3064 11.3547 90.0557 12.384 89.5544 13.088C89.0637 13.7813 88.2477 14.128 87.1064 14.128ZM107.281 14.128C106.033 14.128 105.132 13.8187 104.577 13.2C104.023 12.5813 103.745 11.584 103.745 10.208V8.864H106.449V10.576C106.449 11.2587 106.668 11.6 107.105 11.6C107.351 11.6 107.521 11.5307 107.617 11.392C107.713 11.2427 107.761 10.9973 107.761 10.656C107.761 10.208 107.708 9.84 107.601 9.552C107.495 9.25333 107.356 9.008 107.185 8.816C107.025 8.61333 106.732 8.304 106.305 7.888L105.121 6.704C104.204 5.808 103.745 4.816 103.745 3.728C103.745 2.55467 104.012 1.664 104.545 1.056C105.089 0.437333 105.879 0.127999 106.913 0.127999C108.151 0.127999 109.041 0.458666 109.585 1.12C110.129 1.77067 110.401 2.79467 110.401 4.192H107.601L107.585 3.248C107.585 3.06667 107.532 2.92267 107.425 2.816C107.329 2.70933 107.191 2.656 107.009 2.656C106.796 2.656 106.636 2.71467 106.529 2.832C106.423 2.94933 106.369 3.10933 106.369 3.312C106.369 3.76 106.625 4.224 107.137 4.704L108.737 6.24C109.111 6.60267 109.42 6.94933 109.665 7.28C109.911 7.6 110.108 7.984 110.257 8.432C110.407 8.86933 110.481 9.392 110.481 10C110.481 11.3547 110.231 12.384 109.729 13.088C109.239 13.7813 108.423 14.128 107.281 14.128Z" fill="white"/>
</svg>
