<?xml version="1.0" standalone="no"?>
<!DOCTYPE svg PUBLIC "-//W3C//DTD SVG 20010904//EN"
 "http://www.w3.org/TR/2001/REC-SVG-20010904/DTD/svg10.dtd">
<svg version="1.0" xmlns="http://www.w3.org/2000/svg"
 width="700.000000pt" height="700.000000pt" viewBox="0 0 700.000000 700.000000"
 preserveAspectRatio="xMidYMid meet">
<metadata>
Created by potrace 1.11, written by Peter Selinger 2001-2013
</metadata>
<g transform="translate(0.000000,700.000000) scale(0.100000,-0.100000)"
fill="#000000" stroke="none">
<path d="M0 3500 l0 -3500 3500 0 3500 0 0 3500 0 3500 -3500 0 -3500 0 0
-3500z m1669 1513 c5 -27 114 -490 240 -1029 227 -968 337 -1481 384 -1784 19
-119 26 -147 30 -120 3 19 18 112 32 205 50 318 104 550 393 1660 l289 1110
376 3 376 2 10 -37 c164 -610 562 -2171 592 -2318 42 -212 108 -592 110 -635
1 -24 1 -24 9 5 5 17 23 118 40 225 18 107 49 281 71 385 32 157 507 2216 540
2338 l10 37 390 0 c367 0 390 -1 385 -17 -5 -18 -900 -3537 -932 -3665 l-16
-68 -454 0 c-250 0 -454 3 -454 6 0 3 -115 449 -254 992 -285 1103 -386 1537
-412 1764 -6 55 -24 72 -24 23 0 -41 -60 -354 -121 -630 -33 -148 -169 -693
-302 -1210 l-243 -940 -452 -3 c-249 -1 -452 0 -452 2 0 2 -214 841 -475 1865
-261 1024 -475 1866 -475 1871 0 6 142 10 389 10 l389 0 11 -47z"/>
</g>
</svg>
