<svg width="50" height="50" viewBox="0 0 50 50" fill="none" xmlns="http://www.w3.org/2000/svg">
<path d="M41.6672 -0.000305176H8.33418C3.75059 -0.000305176 0 3.75038 0 8.33407V41.6654C0 46.2522 3.75059 49.9997 8.33418 49.9997L41.6672 49.9996C46.251 49.9996 50 46.2522 50 41.6652V8.33407C50 3.75038 46.2509 -0.000305176 41.6672 -0.000305176ZM42.5095 24.9997H34.375V46.8747H25V24.9997H20.4821V17.8433H25V13.1955C25 6.87997 27.7242 3.12469 35.15 3.12469H43.7067V10.8674H36.7181C34.6438 10.864 34.3865 11.949 34.3865 13.9685L34.375 17.8433H43.75L42.5095 24.9997Z" fill="#404143"/>
</svg>
