<svg width="50" height="50" viewBox="0 0 50 50" fill="none" xmlns="http://www.w3.org/2000/svg">
<path d="M41.6016 -0.000305176H8.39844C3.7793 -0.000305176 0 3.77899 0 8.39813V41.6013C0 46.2204 3.7793 49.9997 8.39844 49.9997H41.6016C46.2208 49.9997 50 46.2204 50 41.6013V8.39813C50 3.77899 46.2208 -0.000305176 41.6016 -0.000305176ZM18.75 40.6247H12.5V18.7497H18.75V40.6247ZM15.625 15.6247C13.8991 15.6247 12.5 14.2256 12.5 12.4997C12.5 10.7738 13.8991 9.37469 15.625 9.37469C17.3509 9.37469 18.75 10.7738 18.75 12.4997C18.75 14.2256 17.3509 15.6247 15.625 15.6247ZM40.625 40.6247H34.375V28.1247C34.375 26.3988 32.976 24.9997 31.25 24.9997C29.524 24.9997 28.125 26.3988 28.125 28.1247V40.6247H21.875V18.7497H28.125V22.6302C29.414 20.8595 31.3845 18.7497 33.5938 18.7497C37.4771 18.7497 40.625 22.2474 40.625 26.5622V40.6247Z" fill="#404143"/>
</svg>
