<svg width="65" height="65" viewBox="0 0 65 65" fill="none" xmlns="http://www.w3.org/2000/svg">
<path fill-rule="evenodd" clip-rule="evenodd" d="M65 0H0V65H65V0ZM32.501 20C35.5728 20 38.4614 20.9473 40.6333 22.6671C44.6533 25.8494 45.1528 31.8369 41.7017 35.4792L32.501 46L23.2871 35.4646C19.8496 31.8369 20.3491 25.8494 24.3691 22.6671C26.541 20.9473 29.4287 20 32.501 20ZM28.4092 29.0217C28.4092 30.854 30.293 32.3455 32.6074 32.3455C34.9219 32.3455 36.8052 30.854 36.8052 29.0217C36.8052 27.1893 34.9219 25.6979 32.6074 25.6979C30.293 25.6979 28.4092 27.1893 28.4092 29.0217Z" fill="#00A2E4"/>
</svg>
