<!-- Generated by IcoMoon.io -->
<svg version="1.1" xmlns="http://www.w3.org/2000/svg" width="97" height="32" viewBox="0 0 97 32">
<title>logo</title>
<path fill="#fefdfe" d="M2.122 22.737l-1.859-17.361h3.395l0.97 10.954 0.97-10.954h3.234l0.93 10.954 0.93-10.954h3.436l-1.9 17.361h-4.163l-0.869-8.367-0.829 8.367h-4.244zM23.321 22.737v-5.72l-2.769-11.641h3.436l0.97 5.881 0.97-5.881h3.436l-2.769 11.641v5.72h-3.274zM36.302 22.737v-17.361h3.476v14.41h3.577v2.951h-7.053zM50.398 22.737v-17.361h6.952v3.355h-3.416v3.375h3.274v3.274h-3.274v3.981h3.638v3.375h-7.175zM68.913 22.898c-1.576 0-2.715-0.391-3.416-1.172s-1.051-2.041-1.051-3.779v-1.698h3.416v2.163c0 0.862 0.276 1.293 0.829 1.293 0.31 0 0.525-0.088 0.647-0.263 0.121-0.189 0.182-0.499 0.182-0.93 0-0.566-0.067-1.031-0.202-1.395-0.135-0.377-0.31-0.687-0.525-0.93-0.202-0.256-0.573-0.647-1.112-1.172l-1.496-1.496c-1.159-1.132-1.738-2.385-1.738-3.759 0-1.482 0.337-2.607 1.011-3.375 0.687-0.781 1.684-1.172 2.991-1.172 1.563 0 2.688 0.418 3.375 1.253 0.687 0.822 1.031 2.115 1.031 3.88h-3.537l-0.020-1.192c0-0.229-0.067-0.411-0.202-0.546-0.121-0.135-0.296-0.202-0.525-0.202-0.269 0-0.472 0.074-0.606 0.222s-0.202 0.35-0.202 0.606c0 0.566 0.323 1.152 0.97 1.758l2.021 1.94c0.472 0.458 0.862 0.896 1.172 1.314 0.31 0.404 0.559 0.889 0.748 1.455 0.189 0.552 0.283 1.213 0.283 1.981 0 1.711-0.317 3.011-0.95 3.901-0.62 0.876-1.651 1.314-3.092 1.314zM84.292 22.898c-1.576 0-2.715-0.391-3.415-1.172s-1.051-2.041-1.051-3.779v-1.698h3.416v2.163c0 0.862 0.276 1.293 0.829 1.293 0.31 0 0.525-0.088 0.647-0.263 0.121-0.189 0.182-0.499 0.182-0.93 0-0.566-0.067-1.031-0.202-1.395-0.135-0.377-0.31-0.687-0.525-0.93-0.202-0.256-0.573-0.647-1.112-1.172l-1.496-1.496c-1.159-1.132-1.738-2.385-1.738-3.759 0-1.482 0.337-2.607 1.011-3.375 0.687-0.781 1.684-1.172 2.991-1.172 1.563 0 2.688 0.418 3.375 1.253 0.687 0.822 1.031 2.115 1.031 3.88h-3.537l-0.020-1.192c0-0.229-0.067-0.411-0.202-0.546-0.121-0.135-0.296-0.202-0.525-0.202-0.269 0-0.472 0.074-0.606 0.222s-0.202 0.35-0.202 0.606c0 0.566 0.323 1.152 0.97 1.758l2.021 1.94c0.472 0.458 0.862 0.896 1.172 1.314 0.31 0.404 0.559 0.889 0.748 1.455 0.189 0.552 0.283 1.213 0.283 1.981 0 1.711-0.317 3.011-0.95 3.901-0.62 0.876-1.651 1.314-3.092 1.314z"></path>
<path fill="#fefdfe" d="M1.767 29.531c-1.002 0-1.502-0.55-1.502-1.649 0-0.547 0.136-0.964 0.409-1.252 0.272-0.29 0.663-0.435 1.171-0.435 0.372 0 0.706 0.073 1.002 0.219l-0.259 0.679c-0.138-0.056-0.267-0.101-0.386-0.135-0.119-0.036-0.238-0.055-0.357-0.055-0.457 0-0.685 0.324-0.685 0.973 0 0.629 0.228 0.944 0.685 0.944 0.169 0 0.325-0.022 0.469-0.066 0.144-0.046 0.288-0.117 0.432-0.213v0.751c-0.142 0.090-0.286 0.152-0.432 0.187-0.144 0.035-0.326 0.052-0.547 0.052zM5.29 26.195c0.119 0 0.218 0.009 0.296 0.026l-0.066 0.823c-0.071-0.019-0.157-0.029-0.259-0.029-0.28 0-0.499 0.072-0.656 0.216-0.155 0.144-0.233 0.345-0.233 0.604v1.638h-0.878v-3.218h0.665l0.13 0.541h0.043c0.1-0.18 0.234-0.325 0.403-0.435 0.171-0.111 0.356-0.167 0.556-0.167zM7.504 26.82c-0.186 0-0.332 0.060-0.438 0.178-0.106 0.117-0.166 0.284-0.181 0.501h1.232c-0.004-0.217-0.060-0.384-0.17-0.501-0.109-0.119-0.257-0.178-0.443-0.178zM7.627 29.531c-0.518 0-0.923-0.143-1.215-0.429s-0.438-0.691-0.438-1.215c0-0.539 0.134-0.956 0.403-1.249 0.271-0.296 0.644-0.443 1.12-0.443 0.455 0 0.809 0.13 1.062 0.389s0.38 0.617 0.38 1.074v0.426h-2.075c0.010 0.249 0.083 0.444 0.222 0.584s0.332 0.21 0.581 0.21c0.194 0 0.377-0.020 0.55-0.060s0.353-0.105 0.541-0.193v0.679c-0.154 0.077-0.318 0.133-0.492 0.17-0.175 0.038-0.388 0.058-0.639 0.058zM11.697 29.474l-0.17-0.437h-0.023c-0.148 0.186-0.3 0.316-0.458 0.389-0.155 0.071-0.359 0.107-0.61 0.107-0.309 0-0.553-0.088-0.731-0.265-0.177-0.177-0.265-0.428-0.265-0.754 0-0.342 0.119-0.593 0.357-0.754 0.24-0.163 0.601-0.253 1.082-0.271l0.558-0.017v-0.141c0-0.326-0.167-0.489-0.501-0.489-0.257 0-0.559 0.078-0.907 0.233l-0.291-0.593c0.37-0.194 0.781-0.291 1.232-0.291 0.432 0 0.763 0.094 0.993 0.282s0.345 0.474 0.345 0.858v2.144h-0.613zM11.438 27.983l-0.34 0.012c-0.255 0.008-0.445 0.054-0.57 0.138s-0.187 0.213-0.187 0.386c0 0.248 0.142 0.371 0.426 0.371 0.203 0 0.366-0.059 0.486-0.176 0.123-0.117 0.184-0.273 0.184-0.466v-0.265zM14.573 28.832c0.154 0 0.338-0.034 0.553-0.101v0.653c-0.219 0.098-0.487 0.147-0.806 0.147-0.351 0-0.607-0.088-0.768-0.265-0.159-0.178-0.239-0.445-0.239-0.8v-1.551h-0.42v-0.371l0.484-0.294 0.253-0.679h0.561v0.685h0.901v0.659h-0.901v1.551c0 0.125 0.035 0.217 0.104 0.276 0.071 0.060 0.164 0.089 0.279 0.089zM15.741 25.424c0-0.286 0.159-0.429 0.478-0.429s0.478 0.143 0.478 0.429c0 0.136-0.040 0.243-0.121 0.32-0.079 0.075-0.198 0.112-0.357 0.112-0.319 0-0.478-0.144-0.478-0.432zM16.657 29.474h-0.878v-3.218h0.878v3.218zM18.346 29.474l-1.226-3.218h0.918l0.622 1.834c0.069 0.232 0.112 0.452 0.13 0.659h0.017c0.010-0.184 0.053-0.404 0.13-0.659l0.619-1.834h0.918l-1.226 3.218h-0.901zM22.269 26.82c-0.186 0-0.332 0.060-0.437 0.178-0.106 0.117-0.166 0.284-0.181 0.501h1.232c-0.004-0.217-0.060-0.384-0.17-0.501-0.109-0.119-0.257-0.178-0.443-0.178zM22.393 29.531c-0.518 0-0.923-0.143-1.215-0.429s-0.437-0.691-0.437-1.215c0-0.539 0.134-0.956 0.403-1.249 0.271-0.296 0.644-0.443 1.12-0.443 0.455 0 0.809 0.13 1.062 0.389s0.38 0.617 0.38 1.074v0.426h-2.075c0.010 0.249 0.084 0.444 0.222 0.584s0.332 0.21 0.581 0.21c0.194 0 0.377-0.020 0.55-0.060s0.353-0.105 0.541-0.193v0.679c-0.154 0.077-0.318 0.133-0.492 0.17-0.175 0.038-0.388 0.058-0.639 0.058z"></path>
<path fill="#fefdfe" d="M35.294 29.474h-0.878v-1.88c0-0.232-0.039-0.406-0.118-0.521-0.077-0.117-0.199-0.176-0.366-0.176-0.224 0-0.388 0.083-0.489 0.248s-0.153 0.437-0.153 0.814v1.514h-0.878v-3.218h0.671l0.118 0.412h0.049c0.086-0.148 0.211-0.263 0.374-0.345 0.163-0.084 0.35-0.127 0.561-0.127 0.482 0 0.808 0.157 0.979 0.472h0.078c0.086-0.15 0.213-0.266 0.38-0.348 0.169-0.083 0.359-0.124 0.57-0.124 0.365 0 0.64 0.094 0.826 0.282 0.188 0.186 0.282 0.485 0.282 0.898v2.098h-0.881v-1.88c0-0.232-0.039-0.406-0.118-0.521-0.077-0.117-0.199-0.176-0.366-0.176-0.215 0-0.376 0.077-0.484 0.23-0.106 0.153-0.158 0.397-0.158 0.731v1.615zM38.903 27.859c0 0.319 0.052 0.559 0.155 0.722 0.106 0.163 0.276 0.245 0.512 0.245 0.234 0 0.402-0.081 0.504-0.242 0.104-0.163 0.155-0.405 0.155-0.725 0-0.318-0.052-0.557-0.155-0.717s-0.273-0.239-0.509-0.239c-0.234 0-0.403 0.080-0.507 0.239-0.104 0.157-0.155 0.396-0.155 0.717zM41.128 27.859c0 0.524-0.138 0.934-0.414 1.229s-0.661 0.443-1.154 0.443c-0.309 0-0.581-0.067-0.818-0.202-0.236-0.136-0.417-0.331-0.544-0.584s-0.19-0.549-0.19-0.887c0-0.526 0.137-0.934 0.412-1.226s0.66-0.438 1.157-0.438c0.309 0 0.581 0.067 0.817 0.202s0.417 0.327 0.544 0.579c0.127 0.251 0.19 0.546 0.19 0.884zM42.873 29.531c-0.378 0-0.675-0.147-0.892-0.44-0.215-0.294-0.322-0.7-0.322-1.22 0-0.528 0.109-0.938 0.328-1.232 0.221-0.296 0.524-0.443 0.91-0.443 0.405 0 0.714 0.157 0.927 0.472h0.029c-0.044-0.24-0.066-0.454-0.066-0.642v-1.030h0.881v4.479h-0.674l-0.17-0.417h-0.037c-0.2 0.317-0.504 0.475-0.912 0.475zM43.181 28.832c0.224 0 0.389-0.065 0.492-0.196 0.106-0.131 0.163-0.352 0.173-0.665v-0.095c0-0.345-0.054-0.593-0.161-0.743-0.106-0.15-0.278-0.224-0.518-0.224-0.196 0-0.348 0.083-0.458 0.25-0.107 0.165-0.161 0.406-0.161 0.722s0.055 0.555 0.164 0.714c0.109 0.157 0.266 0.236 0.469 0.236zM46.917 26.82c-0.186 0-0.332 0.060-0.438 0.178-0.106 0.117-0.166 0.284-0.181 0.501h1.232c-0.004-0.217-0.060-0.384-0.17-0.501-0.109-0.119-0.257-0.178-0.443-0.178zM47.040 29.531c-0.518 0-0.923-0.143-1.215-0.429s-0.438-0.691-0.438-1.215c0-0.539 0.134-0.956 0.403-1.249 0.27-0.296 0.644-0.443 1.12-0.443 0.455 0 0.809 0.13 1.062 0.389s0.38 0.617 0.38 1.074v0.426h-2.075c0.010 0.249 0.083 0.444 0.222 0.584s0.332 0.21 0.581 0.21c0.194 0 0.377-0.020 0.55-0.060s0.353-0.105 0.541-0.193v0.679c-0.154 0.077-0.318 0.133-0.492 0.17-0.175 0.038-0.388 0.058-0.639 0.058zM50.863 26.195c0.119 0 0.218 0.009 0.297 0.026l-0.066 0.823c-0.071-0.019-0.157-0.029-0.259-0.029-0.28 0-0.499 0.072-0.656 0.216-0.155 0.144-0.233 0.345-0.233 0.604v1.638h-0.878v-3.218h0.665l0.13 0.541h0.043c0.1-0.18 0.234-0.325 0.403-0.435 0.171-0.111 0.356-0.167 0.556-0.167zM54.714 29.474h-0.878v-1.88c0-0.232-0.041-0.406-0.124-0.521-0.083-0.117-0.214-0.176-0.394-0.176-0.246 0-0.423 0.083-0.532 0.248-0.109 0.163-0.164 0.435-0.164 0.814v1.514h-0.878v-3.218h0.671l0.118 0.412h0.049c0.098-0.155 0.232-0.273 0.403-0.351 0.173-0.081 0.368-0.121 0.587-0.121 0.374 0 0.658 0.102 0.852 0.305 0.194 0.202 0.291 0.493 0.291 0.875v2.098z"></path>
<path fill="#fefdfe" d="M62.644 25.424c0-0.286 0.159-0.429 0.478-0.429s0.478 0.143 0.478 0.429c0 0.136-0.040 0.243-0.121 0.32-0.079 0.075-0.198 0.112-0.357 0.112-0.318 0-0.478-0.144-0.478-0.432zM63.559 29.474h-0.878v-3.218h0.878v3.218zM67.453 29.474h-0.878v-1.88c0-0.232-0.041-0.406-0.124-0.521-0.082-0.117-0.214-0.176-0.394-0.176-0.246 0-0.423 0.083-0.533 0.248-0.109 0.163-0.164 0.435-0.164 0.814v1.514h-0.878v-3.218h0.671l0.118 0.412h0.049c0.098-0.155 0.232-0.273 0.403-0.351 0.173-0.081 0.368-0.121 0.587-0.121 0.374 0 0.658 0.102 0.852 0.305 0.194 0.202 0.291 0.493 0.291 0.875v2.098zM69.056 27.859c0 0.319 0.052 0.559 0.155 0.722 0.106 0.163 0.276 0.245 0.512 0.245 0.234 0 0.402-0.081 0.504-0.242 0.104-0.163 0.155-0.405 0.155-0.725 0-0.318-0.052-0.557-0.155-0.717s-0.273-0.239-0.509-0.239c-0.234 0-0.403 0.080-0.507 0.239-0.104 0.157-0.155 0.396-0.155 0.717zM71.281 27.859c0 0.524-0.138 0.934-0.414 1.229s-0.661 0.443-1.154 0.443c-0.309 0-0.581-0.067-0.817-0.202-0.236-0.136-0.417-0.331-0.544-0.584s-0.19-0.549-0.19-0.887c0-0.526 0.137-0.934 0.412-1.226s0.66-0.438 1.157-0.438c0.309 0 0.581 0.067 0.817 0.202s0.417 0.327 0.544 0.579c0.127 0.251 0.19 0.546 0.19 0.884zM72.772 29.474l-1.226-3.218h0.918l0.622 1.834c0.069 0.232 0.112 0.452 0.13 0.659h0.017c0.010-0.184 0.053-0.404 0.13-0.659l0.619-1.834h0.918l-1.226 3.218h-0.901zM77.406 29.474l-0.17-0.437h-0.023c-0.148 0.186-0.3 0.316-0.458 0.389-0.155 0.071-0.359 0.107-0.61 0.107-0.309 0-0.553-0.088-0.731-0.265-0.177-0.177-0.265-0.428-0.265-0.754 0-0.342 0.119-0.593 0.357-0.754 0.24-0.163 0.601-0.253 1.082-0.271l0.558-0.017v-0.141c0-0.326-0.167-0.489-0.501-0.489-0.257 0-0.559 0.078-0.907 0.233l-0.291-0.593c0.37-0.194 0.781-0.291 1.232-0.291 0.432 0 0.763 0.094 0.993 0.282s0.345 0.474 0.345 0.858v2.144h-0.613zM77.147 27.983l-0.34 0.012c-0.255 0.008-0.445 0.054-0.57 0.138s-0.187 0.213-0.187 0.386c0 0.248 0.142 0.371 0.426 0.371 0.203 0 0.366-0.059 0.486-0.176 0.123-0.117 0.184-0.273 0.184-0.466v-0.265zM80.282 28.832c0.154 0 0.338-0.034 0.553-0.101v0.653c-0.219 0.098-0.487 0.147-0.806 0.147-0.351 0-0.607-0.088-0.769-0.265-0.159-0.178-0.239-0.445-0.239-0.8v-1.551h-0.42v-0.371l0.484-0.294 0.253-0.679h0.561v0.685h0.901v0.659h-0.901v1.551c0 0.125 0.035 0.217 0.104 0.276 0.071 0.060 0.164 0.089 0.279 0.089zM81.45 25.424c0-0.286 0.159-0.429 0.478-0.429s0.478 0.143 0.478 0.429c0 0.136-0.040 0.243-0.121 0.32-0.079 0.075-0.198 0.112-0.357 0.112-0.319 0-0.478-0.144-0.478-0.432zM82.366 29.474h-0.878v-3.218h0.878v3.218zM84.055 29.474l-1.226-3.218h0.918l0.622 1.834c0.069 0.232 0.112 0.452 0.13 0.659h0.017c0.010-0.184 0.053-0.404 0.13-0.659l0.619-1.834h0.918l-1.226 3.218h-0.901zM87.978 26.82c-0.186 0-0.332 0.060-0.437 0.178-0.106 0.117-0.167 0.284-0.182 0.501h1.232c-0.003-0.217-0.061-0.384-0.17-0.501-0.109-0.119-0.257-0.178-0.443-0.178zM88.102 29.531c-0.518 0-0.923-0.143-1.214-0.429s-0.438-0.691-0.438-1.215c0-0.539 0.135-0.956 0.403-1.249 0.27-0.296 0.643-0.443 1.119-0.443 0.455 0 0.809 0.13 1.063 0.389s0.38 0.617 0.38 1.074v0.426h-2.076c0.010 0.249 0.083 0.444 0.222 0.584s0.332 0.21 0.581 0.21c0.194 0 0.377-0.020 0.55-0.060s0.353-0.105 0.541-0.193v0.679c-0.153 0.077-0.317 0.133-0.492 0.17-0.174 0.038-0.387 0.058-0.639 0.058z"></path>
</svg>
