<!-- Generated by IcoMoon.io -->
<svg version="1.1" xmlns="http://www.w3.org/2000/svg" width="97" height="32" viewBox="0 0 97 32">
<title>logo</title>
<path fill="#fefdfe" d="M2.122 22.737l-1.859-17.361h3.395l0.97 10.954 0.97-10.954h3.234l0.93 10.954 0.93-10.954h3.436l-1.9 17.361h-4.163l-0.869-8.367-0.829 8.367h-4.244zM23.321 22.737v-5.72l-2.769-11.641h3.436l0.97 5.881 0.97-5.881h3.436l-2.769 11.641v5.72h-3.274zM36.302 22.737v-17.361h3.476v14.41h3.577v2.951h-7.053zM50.398 22.737v-17.361h6.952v3.355h-3.416v3.375h3.274v3.274h-3.274v3.981h3.638v3.375h-7.175zM68.913 22.898c-1.576 0-2.715-0.391-3.416-1.172s-1.051-2.041-1.051-3.779v-1.698h3.416v2.163c0 0.862 0.276 1.293 0.829 1.293 0.31 0 0.525-0.088 0.647-0.263 0.121-0.189 0.182-0.499 0.182-0.93 0-0.566-0.067-1.031-0.202-1.395-0.135-0.377-0.31-0.687-0.525-0.93-0.202-0.256-0.573-0.647-1.112-1.172l-1.496-1.496c-1.159-1.132-1.738-2.385-1.738-3.759 0-1.482 0.337-2.607 1.011-3.375 0.687-0.781 1.684-1.172 2.991-1.172 1.563 0 2.688 0.418 3.375 1.253 0.687 0.822 1.031 2.115 1.031 3.88h-3.537l-0.020-1.192c0-0.229-0.067-0.411-0.202-0.546-0.121-0.135-0.296-0.202-0.525-0.202-0.269 0-0.472 0.074-0.606 0.222s-0.202 0.35-0.202 0.606c0 0.566 0.323 1.152 0.97 1.758l2.021 1.94c0.472 0.458 0.862 0.896 1.172 1.314 0.31 0.404 0.559 0.889 0.748 1.455 0.189 0.552 0.283 1.213 0.283 1.981 0 1.711-0.317 3.011-0.95 3.901-0.62 0.876-1.651 1.314-3.092 1.314zM84.292 22.898c-1.576 0-2.715-0.391-3.415-1.172s-1.051-2.041-1.051-3.779v-1.698h3.416v2.163c0 0.862 0.276 1.293 0.829 1.293 0.31 0 0.525-0.088 0.647-0.263 0.121-0.189 0.182-0.499 0.182-0.93 0-0.566-0.067-1.031-0.202-1.395-0.135-0.377-0.31-0.687-0.525-0.93-0.202-0.256-0.573-0.647-1.112-1.172l-1.496-1.496c-1.159-1.132-1.738-2.385-1.738-3.759 0-1.482 0.337-2.607 1.011-3.375 0.687-0.781 1.684-1.172 2.991-1.172 1.563 0 2.688 0.418 3.375 1.253 0.687 0.822 1.031 2.115 1.031 3.88h-3.537l-0.020-1.192c0-0.229-0.067-0.411-0.202-0.546-0.121-0.135-0.296-0.202-0.525-0.202-0.269 0-0.472 0.074-0.606 0.222s-0.202 0.35-0.202 0.606c0 0.566 0.323 1.152 0.97 1.758l2.021 1.94c0.472 0.458 0.862 0.896 1.172 1.314 0.31 0.404 0.559 0.889 0.748 1.455 0.189 0.552 0.283 1.213 0.283 1.981 0 1.711-0.317 3.011-0.95 3.901-0.62 0.876-1.651 1.314-3.092 1.314z"></path>
<path fill="#fefdfe" d="M0.288 29.137c0-0.251 0.046-0.486 0.138-0.705 0.094-0.221 0.223-0.413 0.386-0.576 0.165-0.163 0.359-0.292 0.581-0.386 0.224-0.094 0.468-0.141 0.731-0.141 0.178 0 0.331 0.014 0.458 0.043s0.23 0.061 0.311 0.098c0.081 0.035 0.139 0.067 0.176 0.098 0.038 0.029 0.058 0.044 0.058 0.046 0 0.012-0.005 0.044-0.014 0.098-0.008 0.052-0.017 0.113-0.029 0.184-0.010 0.069-0.019 0.141-0.029 0.216-0.008 0.073-0.011 0.136-0.011 0.19 0 0.010-0.003 0.020-0.009 0.032s-0.021 0.017-0.046 0.017c-0.023 0-0.057-0.008-0.101-0.023-0.044-0.017-0.099-0.036-0.164-0.055-0.063-0.019-0.137-0.036-0.222-0.052-0.083-0.017-0.175-0.026-0.276-0.026-0.127 0-0.241 0.023-0.343 0.069-0.102 0.044-0.189 0.107-0.262 0.187-0.073 0.079-0.13 0.173-0.17 0.282-0.038 0.109-0.058 0.227-0.058 0.354 0 0.132 0.020 0.246 0.060 0.34 0.042 0.092 0.098 0.168 0.167 0.227 0.069 0.058 0.149 0.1 0.239 0.127s0.185 0.040 0.285 0.040c0.115 0 0.231-0.015 0.348-0.046 0.117-0.033 0.227-0.078 0.331-0.135 0.004-0.002 0.011-0.003 0.023-0.003 0.010 0 0.016 0.005 0.020 0.014 0.006 0.010 0.009 0.028 0.009 0.055 0 0.061 0 0.136 0 0.224 0 0.086-0.001 0.17-0.003 0.25 0 0.079-0.001 0.146-0.003 0.201s-0.004 0.084-0.006 0.084c-0.069 0.046-0.144 0.083-0.224 0.112s-0.164 0.052-0.25 0.069c-0.084 0.017-0.17 0.029-0.256 0.035s-0.17 0.009-0.25 0.009c-0.224 0-0.434-0.037-0.627-0.112s-0.363-0.18-0.507-0.317c-0.142-0.136-0.254-0.299-0.337-0.489-0.083-0.192-0.124-0.404-0.124-0.636zM5.734 28.198c-0.040-0.004-0.085-0.008-0.135-0.012-0.050-0.006-0.103-0.009-0.158-0.009-0.084 0-0.171 0.008-0.259 0.023-0.086 0.013-0.167 0.041-0.242 0.083s-0.139 0.101-0.193 0.176c-0.054 0.073-0.088 0.168-0.104 0.285-0.013 0.142-0.025 0.259-0.035 0.351-0.008 0.090-0.013 0.165-0.017 0.224-0.004 0.058-0.008 0.105-0.011 0.141-0.002 0.035-0.004 0.067-0.006 0.098 0 0.008-0.002 0.029-0.006 0.063-0.002 0.035-0.006 0.075-0.012 0.121s-0.011 0.096-0.017 0.15c-0.004 0.054-0.009 0.104-0.014 0.15s-0.011 0.086-0.014 0.121c-0.002 0.035-0.003 0.056-0.003 0.063 0 0.015 0 0.029 0 0.040 0.002 0.010 0.003 0.019 0.003 0.029 0 0.015-0.008 0.029-0.023 0.040-0.013 0.010-0.045 0.021-0.095 0.035l-0.763 0.273c-0.021 0.008-0.049 0.017-0.083 0.029s-0.068 0.017-0.101 0.017c-0.027 0-0.051-0.007-0.072-0.020-0.019-0.013-0.029-0.036-0.029-0.069l0.248-2.852c0.006-0.063 0.012-0.107 0.020-0.13 0.010-0.025 0.032-0.041 0.066-0.049 0.175-0.035 0.355-0.069 0.541-0.104 0.186-0.036 0.367-0.083 0.541-0.138 0.015 0 0.024 0.003 0.026 0.009 0.004 0.004 0.006 0.011 0.006 0.020 0 0.004-0.001 0.010-0.003 0.017 0 0.008-0.003 0.025-0.009 0.052-0.004 0.027-0.011 0.068-0.020 0.124-0.008 0.054-0.019 0.13-0.035 0.227 0.088-0.069 0.185-0.132 0.291-0.19 0.107-0.058 0.215-0.107 0.322-0.147 0.107-0.042 0.211-0.075 0.311-0.098 0.1-0.025 0.187-0.037 0.262-0.037l-0.178 0.892zM7.633 27.329c0.182 0 0.347 0.035 0.495 0.104 0.15 0.067 0.277 0.155 0.383 0.265 0.107 0.107 0.19 0.228 0.248 0.363s0.086 0.269 0.086 0.403c0 0.119-0.036 0.239-0.109 0.36-0.073 0.119-0.176 0.226-0.308 0.322-0.13 0.096-0.288 0.174-0.472 0.233s-0.387 0.089-0.607 0.089c-0.115 0-0.236-0.012-0.363-0.035 0.008 0.083 0.032 0.154 0.072 0.213s0.091 0.108 0.153 0.147c0.061 0.038 0.13 0.067 0.207 0.086 0.079 0.017 0.159 0.026 0.242 0.026 0.092 0 0.18-0.008 0.265-0.023 0.086-0.017 0.169-0.039 0.248-0.066s0.154-0.057 0.227-0.089c0.073-0.033 0.142-0.065 0.207-0.098 0.017-0.004 0.032-0.007 0.043-0.009 0.013-0.004 0.026-0.006 0.037-0.006 0 0-0.001 0.015-0.003 0.046 0 0.031 0 0.074 0 0.13s-0.001 0.123-0.003 0.202c0 0.079-0.001 0.166-0.003 0.262 0.006 0.010 0.010 0.019 0.011 0.029s0.003 0.017 0.003 0.023c0 0.023-0.021 0.048-0.063 0.075s-0.098 0.055-0.167 0.083c-0.067 0.029-0.145 0.057-0.233 0.084-0.086 0.027-0.175 0.051-0.265 0.072-0.090 0.023-0.178 0.040-0.262 0.052-0.084 0.013-0.158 0.020-0.222 0.020-0.207 0-0.409-0.036-0.604-0.109-0.194-0.071-0.367-0.174-0.518-0.308-0.15-0.134-0.27-0.297-0.36-0.489s-0.135-0.408-0.135-0.648c0-0.251 0.043-0.486 0.13-0.705 0.086-0.221 0.207-0.413 0.363-0.576 0.157-0.163 0.344-0.292 0.561-0.386s0.456-0.141 0.717-0.141zM7.599 28.095c-0.079 0-0.152 0.017-0.219 0.052-0.065 0.033-0.126 0.081-0.181 0.144-0.054 0.061-0.101 0.136-0.141 0.224-0.040 0.086-0.073 0.182-0.098 0.288 0.198-0.035 0.362-0.071 0.492-0.109s0.235-0.077 0.314-0.115c0.079-0.040 0.134-0.080 0.167-0.118 0.033-0.040 0.049-0.079 0.049-0.115 0-0.035-0.013-0.067-0.040-0.098-0.025-0.031-0.057-0.058-0.095-0.081s-0.081-0.040-0.127-0.052c-0.044-0.013-0.084-0.020-0.121-0.020zM12.143 29.963c-0.002 0.008-0.003 0.015-0.003 0.023 0 0.006 0 0.011 0 0.017 0 0.048 0.008 0.088 0.023 0.121 0.015 0.031 0.032 0.057 0.049 0.078 0.019 0.019 0.036 0.036 0.052 0.049 0.015 0.012 0.023 0.022 0.023 0.032 0 0.027-0.029 0.052-0.086 0.075l-0.774 0.331c-0.002 0.002-0.009 0.003-0.020 0.003-0.015 0-0.031-0.013-0.046-0.040s-0.031-0.061-0.046-0.104c-0.013-0.040-0.027-0.084-0.040-0.13-0.012-0.048-0.022-0.092-0.032-0.132-0.121 0.14-0.251 0.243-0.392 0.308s-0.279 0.098-0.417 0.098c-0.161 0-0.318-0.036-0.472-0.107s-0.29-0.172-0.409-0.302c-0.119-0.132-0.215-0.292-0.288-0.478-0.071-0.186-0.106-0.395-0.106-0.627 0-0.274 0.039-0.525 0.118-0.751 0.081-0.226 0.189-0.421 0.325-0.584s0.295-0.289 0.475-0.377c0.182-0.090 0.375-0.135 0.579-0.135 0.144 0 0.28 0.030 0.409 0.089 0.129 0.058 0.25 0.132 0.366 0.224 0.011-0.058 0.018-0.104 0.020-0.138s0.006-0.061 0.012-0.081c0.008-0.019 0.021-0.032 0.040-0.037 0.019-0.008 0.051-0.013 0.095-0.017 0.138-0.019 0.275-0.036 0.412-0.052 0.138-0.017 0.282-0.030 0.432-0.037l-0.296 2.683zM11.283 28.878c0.019-0.109 0.032-0.212 0.037-0.308 0.008-0.098 0.013-0.187 0.017-0.268-0.031-0.023-0.064-0.047-0.101-0.072-0.035-0.025-0.073-0.048-0.115-0.069-0.040-0.023-0.083-0.041-0.13-0.055-0.044-0.013-0.091-0.020-0.141-0.020-0.104 0-0.191 0.034-0.262 0.101-0.069 0.067-0.126 0.15-0.17 0.248-0.042 0.098-0.073 0.201-0.092 0.311-0.017 0.109-0.026 0.206-0.026 0.291 0 0.303 0.039 0.526 0.118 0.668 0.081 0.14 0.192 0.21 0.334 0.21 0.058 0 0.122-0.016 0.193-0.049s0.143-0.078 0.216-0.135l0.121-0.852zM14.348 28.322c-0.027 0.201-0.053 0.403-0.078 0.604-0.023 0.2-0.037 0.387-0.043 0.561 0 0.075 0.006 0.137 0.017 0.187s0.028 0.089 0.049 0.118c0.023 0.029 0.050 0.050 0.081 0.063 0.031 0.012 0.065 0.017 0.104 0.017 0.061 0 0.129-0.009 0.201-0.026 0.073-0.019 0.146-0.043 0.219-0.072 0.023-0.010 0.042-0.016 0.058-0.020 0.017-0.006 0.032-0.009 0.043-0.009 0.019 0 0.032 0.009 0.037 0.026 0.008 0.017 0.014 0.048 0.020 0.092 0.008 0.042 0.018 0.1 0.032 0.173s0.035 0.165 0.066 0.276c0.002 0.010 0.003 0.018 0.003 0.026 0.002 0.006 0.003 0.011 0.003 0.017 0 0.027-0.011 0.046-0.032 0.058-0.019 0.012-0.052 0.025-0.098 0.040-0.079 0.027-0.162 0.055-0.25 0.083-0.086 0.027-0.173 0.052-0.259 0.075-0.084 0.023-0.166 0.041-0.245 0.055-0.079 0.015-0.148 0.023-0.207 0.023-0.32 0-0.555-0.080-0.702-0.239-0.146-0.159-0.219-0.402-0.219-0.728 0-0.056 0.002-0.112 0.006-0.17 0.004-0.060 0.009-0.121 0.014-0.184 0.019-0.192 0.036-0.373 0.049-0.544 0.015-0.173 0.031-0.338 0.046-0.495h-0.302c-0.104 0-0.178-0.004-0.225-0.011-0.046-0.010-0.069-0.028-0.069-0.055 0-0.008 0.010-0.028 0.029-0.060 0.019-0.035 0.043-0.075 0.072-0.121 0.031-0.048 0.063-0.099 0.098-0.153s0.067-0.104 0.098-0.15c0.033-0.048 0.060-0.089 0.084-0.124s0.037-0.056 0.043-0.063h0.204c0.017-0.146 0.031-0.268 0.040-0.366 0.012-0.1 0.020-0.182 0.026-0.247 0.008-0.065 0.014-0.115 0.020-0.15 0.006-0.036 0.012-0.063 0.017-0.081 0.008-0.017 0.016-0.028 0.026-0.032 0.012-0.006 0.026-0.011 0.043-0.014 0.086-0.017 0.17-0.033 0.25-0.046 0.081-0.015 0.161-0.031 0.242-0.046s0.162-0.033 0.245-0.052c0.084-0.021 0.172-0.045 0.262-0.072 0.006 0 0.010 0 0.012 0 0.002-0.002 0.006-0.003 0.012-0.003 0.023 0 0.035 0.008 0.035 0.023v0.006c-0.010 0.106-0.025 0.252-0.046 0.44-0.019 0.188-0.041 0.401-0.066 0.639h0.771c0.015 0 0.030 0.006 0.043 0.017 0.015 0.010 0.023 0.027 0.023 0.052 0 0.010-0.012 0.044-0.035 0.104s-0.056 0.137-0.098 0.233l-0.104 0.233c-0.013 0.029-0.028 0.050-0.043 0.063-0.013 0.013-0.042 0.022-0.086 0.026h-0.535zM15.56 29.321c0.025-0.263 0.050-0.523 0.075-0.78s0.047-0.521 0.066-0.791c0.004-0.063 0.010-0.107 0.017-0.13 0.010-0.025 0.032-0.041 0.066-0.049 0.163-0.033 0.334-0.066 0.512-0.101 0.179-0.036 0.351-0.082 0.518-0.138 0.006-0.002 0.014-0.003 0.026-0.003 0.021 0 0.032 0.008 0.032 0.023l-0.259 2.803c-0.006 0.063-0.012 0.107-0.020 0.132-0.008 0.023-0.029 0.038-0.063 0.046-0.163 0.050-0.328 0.106-0.495 0.167s-0.344 0.124-0.53 0.187c-0.006 0.002-0.014 0.003-0.026 0.003-0.021 0-0.032-0.010-0.032-0.029 0-0.002 0.002-0.028 0.006-0.078s0.009-0.114 0.014-0.193c0.008-0.079 0.015-0.167 0.023-0.265s0.015-0.196 0.023-0.294c0.010-0.098 0.018-0.192 0.026-0.282s0.014-0.167 0.020-0.23zM15.776 27.024c0.006-0.083 0.010-0.146 0.012-0.19 0.004-0.044 0.007-0.077 0.009-0.098 0.002-0.023 0.003-0.037 0.003-0.043s0-0.010 0-0.012c0.002-0.004 0.003-0.010 0.003-0.017 0.002-0.010 0.004-0.028 0.006-0.055 0.002-0.029 0.005-0.070 0.009-0.124s0.010-0.128 0.017-0.222c0.004-0.063 0.010-0.106 0.017-0.13 0.010-0.025 0.032-0.041 0.066-0.049 0.163-0.033 0.334-0.066 0.512-0.101 0.178-0.036 0.351-0.083 0.518-0.138 0.006-0.002 0.014-0.003 0.026-0.003 0.006 0.012 0.013 0.019 0.023 0.023l0.009 0.006-0.063 0.789c-0.006 0.063-0.013 0.107-0.023 0.132-0.008 0.025-0.028 0.040-0.060 0.046-0.163 0.031-0.328 0.064-0.495 0.101s-0.343 0.073-0.53 0.109c-0.006 0.002-0.014 0.003-0.026 0.003-0.021 0-0.032-0.010-0.032-0.029zM19.362 27.358c0.008-0.019 0.022-0.029 0.043-0.029 0.004 0 0.008 0.001 0.012 0.003 0.004 0 0.008 0 0.012 0 0.144 0.056 0.292 0.102 0.443 0.138 0.152 0.035 0.302 0.068 0.452 0.101 0.036 0.008 0.055 0.029 0.055 0.063 0 0.025-0.012 0.063-0.035 0.115l-1.186 2.521c-0.015 0.035-0.029 0.062-0.040 0.084s-0.023 0.038-0.035 0.052c-0.011 0.013-0.024 0.023-0.037 0.029s-0.030 0.011-0.049 0.014c-0.146 0.029-0.294 0.061-0.443 0.098-0.15 0.038-0.305 0.085-0.466 0.141-0.004 0-0.007 0-0.009 0-0.002 0.002-0.004 0.003-0.006 0.003h-0.020c-0.010 0-0.017-0.004-0.023-0.012-0.006-0.006-0.010-0.012-0.012-0.017-0.029-0.083-0.062-0.189-0.101-0.32-0.036-0.131-0.077-0.276-0.121-0.437s-0.090-0.333-0.138-0.515c-0.048-0.182-0.097-0.367-0.147-0.555s-0.1-0.374-0.15-0.558c-0.048-0.186-0.095-0.362-0.141-0.527-0.017-0.059-0.026-0.102-0.026-0.127 0-0.027 0.015-0.044 0.046-0.052 0.15-0.033 0.305-0.066 0.466-0.101 0.161-0.036 0.314-0.082 0.458-0.138 0.006-0.002 0.014-0.003 0.026-0.003 0.025 0 0.038 0.010 0.040 0.029l0.38 1.934c0.010-0.023 0.026-0.064 0.049-0.124 0.023-0.061 0.051-0.134 0.083-0.219s0.068-0.178 0.107-0.279c0.040-0.102 0.081-0.205 0.121-0.311 0.042-0.106 0.084-0.21 0.124-0.314 0.040-0.106 0.078-0.203 0.112-0.294 0.036-0.090 0.068-0.17 0.095-0.239s0.047-0.121 0.060-0.155zM22.151 27.329c0.182 0 0.347 0.035 0.495 0.104 0.15 0.067 0.277 0.155 0.383 0.265 0.107 0.107 0.19 0.228 0.247 0.363s0.086 0.269 0.086 0.403c0 0.119-0.036 0.239-0.109 0.36-0.073 0.119-0.176 0.226-0.308 0.322-0.13 0.096-0.288 0.174-0.472 0.233s-0.387 0.089-0.607 0.089c-0.115 0-0.236-0.012-0.363-0.035 0.008 0.083 0.032 0.154 0.072 0.213s0.091 0.108 0.152 0.147c0.061 0.038 0.131 0.067 0.207 0.086 0.079 0.017 0.159 0.026 0.242 0.026 0.092 0 0.18-0.008 0.265-0.023 0.086-0.017 0.169-0.039 0.247-0.066s0.155-0.057 0.227-0.089c0.073-0.033 0.142-0.065 0.207-0.098 0.017-0.004 0.032-0.007 0.043-0.009 0.013-0.004 0.026-0.006 0.037-0.006 0 0-0.001 0.015-0.003 0.046 0 0.031 0 0.074 0 0.13s-0.001 0.123-0.003 0.202c0 0.079-0.001 0.166-0.003 0.262 0.006 0.010 0.010 0.019 0.012 0.029s0.003 0.017 0.003 0.023c0 0.023-0.021 0.048-0.063 0.075s-0.098 0.055-0.167 0.083c-0.067 0.029-0.145 0.057-0.233 0.084-0.086 0.027-0.175 0.051-0.265 0.072-0.090 0.023-0.178 0.040-0.262 0.052-0.084 0.013-0.158 0.020-0.222 0.020-0.207 0-0.409-0.036-0.604-0.109-0.194-0.071-0.367-0.174-0.518-0.308-0.15-0.134-0.27-0.297-0.36-0.489s-0.135-0.408-0.135-0.648c0-0.251 0.043-0.486 0.13-0.705 0.086-0.221 0.207-0.413 0.363-0.576 0.157-0.163 0.344-0.292 0.561-0.386s0.456-0.141 0.717-0.141zM22.117 28.095c-0.079 0-0.152 0.017-0.219 0.052-0.065 0.033-0.126 0.081-0.181 0.144-0.054 0.061-0.101 0.136-0.141 0.224-0.040 0.086-0.073 0.182-0.098 0.288 0.198-0.035 0.362-0.071 0.492-0.109s0.235-0.077 0.314-0.115c0.079-0.040 0.134-0.080 0.167-0.118 0.033-0.040 0.049-0.079 0.049-0.115 0-0.035-0.013-0.067-0.040-0.098-0.025-0.031-0.057-0.058-0.095-0.081s-0.081-0.040-0.127-0.052c-0.044-0.013-0.084-0.020-0.121-0.020z"></path>
<path fill="#fefdfe" d="M34.007 30.645c-0.021 0.006-0.049 0.014-0.083 0.026-0.035 0.013-0.068 0.020-0.101 0.020-0.027 0-0.051-0.007-0.072-0.020-0.019-0.013-0.029-0.036-0.029-0.069v-0.017c0.013-0.14 0.025-0.253 0.035-0.34 0.010-0.088 0.017-0.159 0.023-0.213s0.011-0.094 0.014-0.121c0.004-0.029 0.008-0.055 0.011-0.078 0.004-0.025 0.007-0.052 0.009-0.081 0.004-0.029 0.009-0.069 0.014-0.121 0.006-0.054 0.012-0.124 0.020-0.21 0.010-0.088 0.021-0.203 0.035-0.345 0.008-0.077 0.015-0.153 0.023-0.227 0.010-0.077 0.014-0.147 0.014-0.21 0-0.081-0.005-0.153-0.014-0.219-0.008-0.067-0.023-0.124-0.046-0.17-0.021-0.048-0.051-0.085-0.089-0.112s-0.087-0.040-0.147-0.040c-0.036 0-0.084 0.008-0.144 0.023-0.058 0.015-0.116 0.043-0.176 0.083-0.059 0.038-0.113 0.090-0.161 0.155-0.048 0.063-0.079 0.144-0.092 0.242v0.012c-0.023 0.219-0.044 0.409-0.063 0.57-0.017 0.159-0.033 0.296-0.046 0.412s-0.025 0.211-0.035 0.288c-0.008 0.077-0.014 0.142-0.020 0.196-0.006 0.052-0.011 0.095-0.014 0.13-0.002 0.035-0.003 0.067-0.003 0.098 0 0.015 0 0.029 0 0.040 0.002 0.010 0.003 0.018 0.003 0.026 0 0.015-0.008 0.029-0.023 0.040-0.013 0.010-0.045 0.022-0.095 0.037l-0.676 0.196c-0.021 0.006-0.049 0.014-0.084 0.026-0.035 0.013-0.068 0.020-0.101 0.020-0.027 0-0.051-0.007-0.072-0.020-0.019-0.013-0.029-0.036-0.029-0.069v-0.017c0.013-0.14 0.024-0.253 0.032-0.34 0.010-0.088 0.017-0.159 0.023-0.213 0.008-0.054 0.013-0.094 0.017-0.121 0.004-0.029 0.007-0.055 0.009-0.078 0.004-0.025 0.008-0.052 0.012-0.081s0.008-0.069 0.011-0.121c0.006-0.054 0.012-0.124 0.020-0.21 0.010-0.088 0.021-0.203 0.035-0.345 0.008-0.077 0.015-0.153 0.023-0.227 0.010-0.077 0.014-0.147 0.014-0.21 0-0.081-0.004-0.153-0.012-0.219-0.008-0.067-0.022-0.124-0.043-0.17-0.019-0.048-0.046-0.085-0.081-0.112s-0.079-0.040-0.132-0.040c-0.038 0-0.091 0.010-0.158 0.029-0.065 0.019-0.131 0.051-0.199 0.095-0.065 0.044-0.124 0.103-0.176 0.176-0.050 0.071-0.079 0.159-0.086 0.265-0.015 0.142-0.028 0.259-0.037 0.351-0.010 0.090-0.017 0.165-0.023 0.224-0.006 0.058-0.011 0.105-0.014 0.141-0.002 0.035-0.004 0.067-0.006 0.098-0.002 0.008-0.005 0.030-0.009 0.066-0.004 0.035-0.009 0.077-0.014 0.127-0.004 0.048-0.009 0.101-0.014 0.158-0.004 0.056-0.008 0.108-0.011 0.158-0.004 0.048-0.008 0.090-0.012 0.127-0.002 0.035-0.003 0.056-0.003 0.063v0.052c0 0.019-0.001 0.035-0.003 0.049s-0.008 0.026-0.017 0.037c-0.010 0.012-0.024 0.022-0.043 0.032-0.017 0.010-0.042 0.020-0.075 0.032l-0.754 0.268c-0.021 0.008-0.049 0.017-0.083 0.029s-0.068 0.017-0.101 0.017c-0.027 0-0.051-0.007-0.072-0.020-0.019-0.013-0.029-0.036-0.029-0.069l0.259-2.936c0.006-0.063 0.013-0.107 0.020-0.13 0.010-0.025 0.032-0.041 0.066-0.049 0.175-0.035 0.353-0.069 0.535-0.104 0.182-0.036 0.361-0.083 0.535-0.138 0.015 0 0.024 0.003 0.026 0.009 0.004 0.004 0.006 0.011 0.006 0.020l-0.037 0.42c0.071-0.036 0.151-0.076 0.239-0.118 0.088-0.044 0.18-0.084 0.276-0.121 0.098-0.036 0.197-0.066 0.297-0.089 0.102-0.025 0.2-0.037 0.296-0.037 0.132 0 0.254 0.031 0.366 0.092 0.113 0.060 0.206 0.159 0.279 0.299 0.086-0.056 0.177-0.107 0.273-0.155 0.098-0.048 0.197-0.089 0.296-0.124 0.102-0.035 0.203-0.061 0.305-0.081s0.201-0.029 0.297-0.029c0.121 0 0.235 0.017 0.342 0.052s0.2 0.091 0.279 0.17c0.081 0.079 0.144 0.181 0.19 0.308 0.046 0.125 0.069 0.277 0.069 0.458 0 0.046-0.001 0.094-0.003 0.144-0.002 0.048-0.006 0.098-0.012 0.15l-0.132 1.232c-0.010 0.081-0.015 0.155-0.017 0.224-0.002 0.067-0.003 0.146-0.003 0.236 0 0.015 0 0.029 0 0.040 0.002 0.010 0.003 0.018 0.003 0.026 0 0.017-0.008 0.031-0.023 0.040-0.013 0.010-0.045 0.022-0.095 0.037l-0.708 0.196zM37.015 30.691c-0.271 0-0.509-0.044-0.714-0.132-0.203-0.088-0.374-0.205-0.512-0.351-0.138-0.148-0.242-0.317-0.311-0.507-0.069-0.192-0.104-0.39-0.104-0.596s0.034-0.4 0.101-0.584c0.067-0.186 0.161-0.352 0.282-0.498 0.121-0.148 0.266-0.271 0.435-0.368 0.169-0.1 0.355-0.167 0.558-0.202 0.031-0.002 0.046-0.009 0.046-0.020 0-0.021-0.003-0.040-0.009-0.058-0.004-0.019-0.006-0.036-0.006-0.049 0-0.021 0.004-0.036 0.012-0.043s0.016-0.012 0.026-0.012c0.366 0 0.678 0.042 0.935 0.127 0.257 0.083 0.466 0.196 0.627 0.34s0.278 0.314 0.351 0.509c0.073 0.196 0.109 0.406 0.109 0.63 0 0.286-0.048 0.541-0.144 0.766s-0.227 0.414-0.394 0.57c-0.165 0.155-0.359 0.273-0.581 0.354-0.221 0.083-0.457 0.124-0.708 0.124zM36.482 29.073c0 0.104 0.011 0.206 0.032 0.308 0.023 0.102 0.059 0.194 0.109 0.276 0.052 0.083 0.119 0.15 0.202 0.202 0.083 0.050 0.185 0.075 0.308 0.075 0.088-0.004 0.165-0.023 0.23-0.058 0.067-0.036 0.125-0.083 0.173-0.138 0.048-0.058 0.087-0.122 0.118-0.193 0.033-0.071 0.058-0.144 0.075-0.219 0.019-0.077 0.033-0.152 0.040-0.224s0.012-0.139 0.012-0.199c0-0.1-0.015-0.198-0.046-0.294-0.029-0.096-0.072-0.18-0.13-0.253s-0.13-0.131-0.216-0.176c-0.084-0.046-0.182-0.069-0.294-0.069-0.115 0-0.212 0.035-0.291 0.104-0.079 0.067-0.142 0.151-0.19 0.25-0.046 0.1-0.080 0.205-0.101 0.317-0.021 0.109-0.032 0.206-0.032 0.291zM41.393 28.904c0.006-0.061 0.012-0.126 0.017-0.193 0.008-0.067 0.016-0.137 0.026-0.21-0.044-0.115-0.107-0.208-0.187-0.279-0.081-0.073-0.181-0.109-0.302-0.109-0.119 0-0.22 0.035-0.302 0.104-0.082 0.067-0.149 0.151-0.199 0.25s-0.086 0.205-0.109 0.317c-0.021 0.109-0.032 0.206-0.032 0.291 0 0.104 0.006 0.206 0.017 0.308 0.013 0.102 0.034 0.194 0.060 0.276 0.029 0.083 0.066 0.15 0.112 0.202 0.046 0.050 0.104 0.075 0.173 0.075 0.169-0.006 0.306-0.044 0.412-0.115s0.19-0.157 0.253-0.259l0.060-0.656zM42.397 30.251c0 0.004-0.001 0.009-0.003 0.014 0 0.004 0 0.008 0 0.012 0 0.010 0 0.017 0 0.023 0.002 0.006 0.003 0.012 0.003 0.017 0 0.017-0.007 0.032-0.020 0.043-0.012 0.010-0.043 0.021-0.095 0.035l-0.771 0.25c-0.021 0.008-0.049 0.017-0.083 0.029s-0.068 0.017-0.101 0.017c-0.027 0-0.051-0.007-0.072-0.020-0.019-0.013-0.029-0.038-0.029-0.075 0-0.035 0-0.062 0-0.084 0.002-0.021 0.003-0.040 0.003-0.058 0.002-0.019 0.004-0.039 0.006-0.060 0.004-0.021 0.008-0.049 0.012-0.083-0.144 0.115-0.293 0.207-0.446 0.276-0.152 0.069-0.312 0.104-0.481 0.104-0.184 0-0.348-0.044-0.492-0.132-0.142-0.086-0.262-0.202-0.36-0.348-0.098-0.148-0.173-0.316-0.224-0.504-0.050-0.19-0.075-0.388-0.075-0.593 0-0.267 0.043-0.509 0.13-0.728 0.088-0.221 0.207-0.409 0.357-0.564 0.15-0.157 0.324-0.278 0.524-0.363 0.2-0.086 0.412-0.13 0.636-0.13 0.121 0 0.236 0.032 0.345 0.095 0.111 0.063 0.216 0.145 0.314 0.245 0.006-0.094 0.012-0.196 0.020-0.305 0.008-0.111 0.015-0.224 0.023-0.337 0.008-0.115 0.015-0.228 0.023-0.34s0.014-0.213 0.020-0.305c0-0.017 0.006-0.031 0.017-0.040 0.013-0.012 0.046-0.024 0.098-0.037l0.809-0.193c0.021-0.004 0.049-0.012 0.083-0.026s0.068-0.020 0.101-0.020c0.025 0 0.048 0.006 0.069 0.017 0.023 0.012 0.035 0.034 0.035 0.066 0 0.004-0.001 0.012-0.003 0.026 0 0.011 0 0.019 0 0.023l-0.371 4.053zM44.757 27.329c0.182 0 0.347 0.035 0.495 0.104 0.15 0.067 0.277 0.155 0.383 0.265 0.107 0.107 0.19 0.228 0.248 0.363s0.086 0.269 0.086 0.403c0 0.119-0.036 0.239-0.109 0.36-0.073 0.119-0.176 0.226-0.308 0.322-0.131 0.096-0.288 0.174-0.472 0.233s-0.387 0.089-0.607 0.089c-0.115 0-0.236-0.012-0.363-0.035 0.008 0.083 0.032 0.154 0.072 0.213s0.091 0.108 0.153 0.147c0.061 0.038 0.13 0.067 0.207 0.086 0.079 0.017 0.159 0.026 0.242 0.026 0.092 0 0.18-0.008 0.265-0.023 0.086-0.017 0.169-0.039 0.248-0.066s0.154-0.057 0.227-0.089c0.073-0.033 0.142-0.065 0.207-0.098 0.017-0.004 0.032-0.007 0.043-0.009 0.013-0.004 0.026-0.006 0.037-0.006 0 0-0.001 0.015-0.003 0.046 0 0.031 0 0.074 0 0.13s-0.001 0.123-0.003 0.202c0 0.079-0.001 0.166-0.003 0.262 0.006 0.010 0.010 0.019 0.012 0.029s0.003 0.017 0.003 0.023c0 0.023-0.021 0.048-0.063 0.075s-0.098 0.055-0.167 0.083c-0.067 0.029-0.145 0.057-0.233 0.084-0.086 0.027-0.175 0.051-0.265 0.072-0.090 0.023-0.178 0.040-0.262 0.052-0.084 0.013-0.158 0.020-0.222 0.020-0.207 0-0.409-0.036-0.604-0.109-0.194-0.071-0.366-0.174-0.518-0.308-0.15-0.134-0.27-0.297-0.36-0.489s-0.135-0.408-0.135-0.648c0-0.251 0.043-0.486 0.13-0.705 0.086-0.221 0.207-0.413 0.363-0.576 0.157-0.163 0.344-0.292 0.561-0.386s0.456-0.141 0.717-0.141zM44.723 28.095c-0.079 0-0.152 0.017-0.219 0.052-0.065 0.033-0.126 0.081-0.181 0.144-0.054 0.061-0.101 0.136-0.141 0.224-0.040 0.086-0.073 0.182-0.098 0.288 0.198-0.035 0.362-0.071 0.492-0.109s0.235-0.077 0.314-0.115c0.079-0.040 0.134-0.080 0.167-0.118 0.033-0.040 0.049-0.079 0.049-0.115 0-0.035-0.013-0.067-0.040-0.098-0.025-0.031-0.057-0.058-0.095-0.081s-0.081-0.040-0.127-0.052c-0.044-0.013-0.084-0.020-0.121-0.020zM48.683 28.198c-0.040-0.004-0.085-0.008-0.135-0.012-0.050-0.006-0.103-0.009-0.158-0.009-0.084 0-0.171 0.008-0.259 0.023-0.086 0.013-0.167 0.041-0.242 0.083s-0.139 0.101-0.193 0.176c-0.054 0.073-0.088 0.168-0.104 0.285-0.013 0.142-0.025 0.259-0.035 0.351-0.008 0.090-0.013 0.165-0.017 0.224-0.004 0.058-0.008 0.105-0.012 0.141-0.002 0.035-0.004 0.067-0.006 0.098 0 0.008-0.002 0.029-0.006 0.063-0.002 0.035-0.006 0.075-0.011 0.121s-0.012 0.096-0.017 0.15c-0.004 0.054-0.009 0.104-0.014 0.15s-0.011 0.086-0.014 0.121c-0.002 0.035-0.003 0.056-0.003 0.063 0 0.015 0 0.029 0 0.040 0.002 0.010 0.003 0.019 0.003 0.029 0 0.015-0.008 0.029-0.023 0.040-0.013 0.010-0.045 0.021-0.095 0.035l-0.763 0.273c-0.021 0.008-0.049 0.017-0.083 0.029s-0.068 0.017-0.101 0.017c-0.027 0-0.051-0.007-0.072-0.020-0.019-0.013-0.029-0.036-0.029-0.069l0.248-2.852c0.006-0.063 0.012-0.107 0.020-0.13 0.010-0.025 0.032-0.041 0.066-0.049 0.175-0.035 0.355-0.069 0.541-0.104 0.186-0.036 0.366-0.083 0.541-0.138 0.015 0 0.024 0.003 0.026 0.009 0.004 0.004 0.006 0.011 0.006 0.020 0 0.004-0.001 0.010-0.003 0.017 0 0.008-0.003 0.025-0.009 0.052-0.004 0.027-0.011 0.068-0.020 0.124-0.008 0.054-0.019 0.13-0.035 0.227 0.088-0.069 0.185-0.132 0.291-0.19 0.108-0.058 0.215-0.107 0.322-0.147 0.107-0.042 0.211-0.075 0.311-0.098 0.1-0.025 0.187-0.037 0.262-0.037l-0.178 0.892zM51.32 30.645c-0.021 0.006-0.049 0.014-0.083 0.026-0.035 0.013-0.068 0.020-0.101 0.020-0.027 0-0.051-0.007-0.072-0.020-0.019-0.013-0.029-0.036-0.029-0.069v-0.017c0.012-0.104 0.021-0.191 0.029-0.262 0.008-0.073 0.014-0.138 0.020-0.196 0.008-0.059 0.013-0.118 0.017-0.176 0.006-0.059 0.012-0.128 0.020-0.204 0.008-0.079 0.016-0.171 0.026-0.276 0.012-0.107 0.025-0.241 0.040-0.4 0.010-0.098 0.018-0.198 0.026-0.299s0.012-0.196 0.012-0.282c0-0.058-0.005-0.11-0.014-0.158-0.008-0.050-0.023-0.092-0.046-0.127-0.021-0.036-0.051-0.064-0.089-0.083s-0.087-0.029-0.147-0.029c-0.044 0-0.106 0.010-0.184 0.029-0.077 0.019-0.154 0.051-0.23 0.095s-0.145 0.103-0.204 0.176c-0.060 0.071-0.093 0.159-0.101 0.265-0.011 0.142-0.022 0.264-0.032 0.365-0.010 0.1-0.018 0.185-0.026 0.256-0.008 0.069-0.014 0.126-0.020 0.17-0.004 0.044-0.007 0.082-0.009 0.112-0.002 0.008-0.005 0.029-0.009 0.063s-0.009 0.076-0.014 0.124c-0.004 0.048-0.009 0.099-0.014 0.152-0.004 0.054-0.009 0.105-0.014 0.153-0.004 0.048-0.008 0.089-0.012 0.124-0.002 0.035-0.003 0.056-0.003 0.063 0 0.015 0 0.029 0 0.040 0.002 0.010 0.003 0.019 0.003 0.029 0 0.015-0.008 0.029-0.023 0.040-0.013 0.010-0.045 0.021-0.095 0.035l-0.763 0.262c-0.021 0.008-0.049 0.017-0.083 0.029s-0.068 0.017-0.101 0.017c-0.027 0-0.051-0.007-0.072-0.020-0.019-0.013-0.029-0.036-0.029-0.069l0.262-2.942c0.006-0.063 0.012-0.106 0.020-0.13 0.010-0.025 0.032-0.041 0.066-0.049 0.175-0.035 0.354-0.069 0.538-0.104 0.184-0.036 0.364-0.083 0.538-0.138 0.015 0 0.024 0.003 0.026 0.009 0.004 0.004 0.006 0.011 0.006 0.020 0 0.004-0.001 0.010-0.003 0.017 0 0.008-0.003 0.025-0.009 0.052-0.004 0.027-0.011 0.068-0.020 0.124-0.008 0.054-0.019 0.13-0.035 0.227 0.132-0.077 0.256-0.138 0.371-0.184 0.117-0.048 0.226-0.084 0.328-0.109 0.104-0.027 0.2-0.044 0.291-0.052 0.090-0.010 0.175-0.014 0.253-0.014 0.271 0 0.467 0.083 0.59 0.247 0.123 0.163 0.184 0.409 0.184 0.737 0 0.046-0.001 0.094-0.003 0.144-0.002 0.048-0.006 0.098-0.012 0.15l-0.132 1.238c-0.010 0.081-0.015 0.155-0.017 0.224-0.002 0.067-0.003 0.146-0.003 0.236 0 0.015 0 0.029 0 0.040 0.002 0.010 0.003 0.018 0.003 0.026 0 0.017-0.008 0.031-0.023 0.040-0.013 0.010-0.045 0.022-0.095 0.037l-0.699 0.196z"></path>
<path fill="#fefdfe" d="M60.634 29.321c0.025-0.263 0.050-0.523 0.075-0.78s0.047-0.521 0.066-0.791c0.004-0.063 0.010-0.107 0.017-0.13 0.010-0.025 0.032-0.041 0.066-0.049 0.163-0.033 0.334-0.066 0.512-0.101 0.178-0.036 0.351-0.082 0.518-0.138 0.006-0.002 0.014-0.003 0.026-0.003 0.021 0 0.032 0.008 0.032 0.023l-0.259 2.803c-0.006 0.063-0.012 0.107-0.020 0.132-0.008 0.023-0.029 0.038-0.063 0.046-0.163 0.050-0.328 0.106-0.495 0.167s-0.343 0.124-0.53 0.187c-0.006 0.002-0.014 0.003-0.026 0.003-0.021 0-0.032-0.010-0.032-0.029 0-0.002 0.002-0.028 0.006-0.078s0.009-0.114 0.014-0.193c0.008-0.079 0.015-0.167 0.023-0.265s0.015-0.196 0.023-0.294c0.010-0.098 0.018-0.192 0.026-0.282s0.014-0.167 0.020-0.23zM60.85 27.024c0.006-0.083 0.010-0.146 0.011-0.19 0.004-0.044 0.007-0.077 0.009-0.098 0.002-0.023 0.003-0.037 0.003-0.043s0-0.010 0-0.012c0.002-0.004 0.003-0.010 0.003-0.017 0.002-0.010 0.004-0.028 0.006-0.055 0.002-0.029 0.005-0.070 0.009-0.124s0.010-0.128 0.017-0.222c0.004-0.063 0.010-0.106 0.017-0.13 0.010-0.025 0.032-0.041 0.066-0.049 0.163-0.033 0.334-0.066 0.512-0.101 0.178-0.036 0.351-0.083 0.518-0.138 0.006-0.002 0.014-0.003 0.026-0.003 0.006 0.012 0.013 0.019 0.023 0.023l0.009 0.006-0.063 0.789c-0.006 0.063-0.013 0.107-0.023 0.132-0.008 0.025-0.028 0.040-0.060 0.046-0.163 0.031-0.328 0.064-0.495 0.101s-0.343 0.073-0.53 0.109c-0.006 0.002-0.014 0.003-0.026 0.003-0.021 0-0.032-0.010-0.032-0.029zM64.71 30.645c-0.021 0.006-0.049 0.014-0.083 0.026-0.035 0.013-0.068 0.020-0.101 0.020-0.027 0-0.051-0.007-0.072-0.020-0.019-0.013-0.029-0.036-0.029-0.069v-0.017c0.012-0.104 0.021-0.191 0.029-0.262 0.008-0.073 0.014-0.138 0.020-0.196 0.008-0.059 0.013-0.118 0.017-0.176 0.006-0.059 0.012-0.128 0.020-0.204 0.008-0.079 0.016-0.171 0.026-0.276 0.012-0.107 0.025-0.241 0.040-0.4 0.010-0.098 0.018-0.198 0.026-0.299s0.012-0.196 0.012-0.282c0-0.058-0.005-0.11-0.014-0.158-0.008-0.050-0.023-0.092-0.046-0.127-0.021-0.036-0.051-0.064-0.089-0.083s-0.087-0.029-0.147-0.029c-0.044 0-0.106 0.010-0.184 0.029-0.077 0.019-0.154 0.051-0.23 0.095s-0.145 0.103-0.204 0.176c-0.060 0.071-0.093 0.159-0.101 0.265-0.011 0.142-0.022 0.264-0.032 0.365-0.010 0.1-0.018 0.185-0.026 0.256-0.008 0.069-0.014 0.126-0.020 0.17-0.004 0.044-0.007 0.082-0.009 0.112-0.002 0.008-0.005 0.029-0.009 0.063s-0.009 0.076-0.014 0.124c-0.004 0.048-0.009 0.099-0.014 0.152-0.004 0.054-0.009 0.105-0.014 0.153-0.004 0.048-0.008 0.089-0.012 0.124-0.002 0.035-0.003 0.056-0.003 0.063 0 0.015 0 0.029 0 0.040 0.002 0.010 0.003 0.019 0.003 0.029 0 0.015-0.008 0.029-0.023 0.040-0.013 0.010-0.045 0.021-0.095 0.035l-0.763 0.262c-0.021 0.008-0.049 0.017-0.083 0.029s-0.068 0.017-0.101 0.017c-0.027 0-0.051-0.007-0.072-0.020-0.019-0.013-0.029-0.036-0.029-0.069l0.262-2.942c0.006-0.063 0.012-0.106 0.020-0.13 0.010-0.025 0.032-0.041 0.066-0.049 0.175-0.035 0.354-0.069 0.538-0.104 0.184-0.036 0.364-0.083 0.538-0.138 0.015 0 0.024 0.003 0.026 0.009 0.004 0.004 0.006 0.011 0.006 0.020 0 0.004-0.001 0.010-0.003 0.017 0 0.008-0.003 0.025-0.009 0.052-0.004 0.027-0.011 0.068-0.020 0.124-0.008 0.054-0.019 0.13-0.035 0.227 0.132-0.077 0.256-0.138 0.371-0.184 0.117-0.048 0.226-0.084 0.328-0.109 0.104-0.027 0.201-0.044 0.291-0.052 0.090-0.010 0.175-0.014 0.253-0.014 0.271 0 0.467 0.083 0.59 0.247 0.123 0.163 0.184 0.409 0.184 0.737 0 0.046-0.001 0.094-0.003 0.144-0.002 0.048-0.006 0.098-0.012 0.15l-0.132 1.238c-0.010 0.081-0.015 0.155-0.017 0.224-0.002 0.067-0.003 0.146-0.003 0.236 0 0.015 0 0.029 0 0.040 0.002 0.010 0.003 0.018 0.003 0.026 0 0.017-0.008 0.031-0.023 0.040-0.013 0.010-0.045 0.022-0.095 0.037l-0.699 0.196zM67.709 30.691c-0.271 0-0.508-0.044-0.714-0.132-0.203-0.088-0.374-0.205-0.512-0.351-0.138-0.148-0.242-0.317-0.311-0.507-0.069-0.192-0.104-0.39-0.104-0.596s0.034-0.4 0.101-0.584c0.067-0.186 0.161-0.352 0.282-0.498 0.121-0.148 0.266-0.271 0.435-0.368 0.169-0.1 0.355-0.167 0.558-0.202 0.031-0.002 0.046-0.009 0.046-0.020 0-0.021-0.003-0.040-0.009-0.058-0.004-0.019-0.006-0.036-0.006-0.049 0-0.021 0.004-0.036 0.012-0.043s0.016-0.012 0.026-0.012c0.366 0 0.678 0.042 0.935 0.127 0.257 0.083 0.466 0.196 0.627 0.34s0.278 0.314 0.351 0.509c0.073 0.196 0.109 0.406 0.109 0.63 0 0.286-0.048 0.541-0.144 0.766s-0.227 0.414-0.394 0.57c-0.165 0.155-0.359 0.273-0.581 0.354-0.221 0.083-0.457 0.124-0.708 0.124zM67.176 29.073c0 0.104 0.011 0.206 0.032 0.308 0.023 0.102 0.059 0.194 0.109 0.276 0.052 0.083 0.119 0.15 0.201 0.202 0.083 0.050 0.185 0.075 0.308 0.075 0.088-0.004 0.165-0.023 0.23-0.058 0.067-0.036 0.125-0.083 0.173-0.138 0.048-0.058 0.087-0.122 0.118-0.193 0.033-0.071 0.058-0.144 0.075-0.219 0.019-0.077 0.033-0.152 0.040-0.224s0.012-0.139 0.012-0.199c0-0.1-0.015-0.198-0.046-0.294-0.029-0.096-0.072-0.18-0.13-0.253s-0.13-0.131-0.216-0.176c-0.084-0.046-0.182-0.069-0.294-0.069-0.115 0-0.212 0.035-0.291 0.104-0.079 0.067-0.142 0.151-0.19 0.25-0.046 0.1-0.080 0.205-0.101 0.317-0.021 0.109-0.032 0.206-0.032 0.291zM71.943 27.358c0.008-0.019 0.022-0.029 0.043-0.029 0.004 0 0.008 0.001 0.012 0.003 0.004 0 0.008 0 0.011 0 0.144 0.056 0.292 0.102 0.443 0.138 0.152 0.035 0.302 0.068 0.452 0.101 0.036 0.008 0.055 0.029 0.055 0.063 0 0.025-0.012 0.063-0.035 0.115l-1.186 2.521c-0.015 0.035-0.029 0.062-0.040 0.084s-0.023 0.038-0.035 0.052c-0.012 0.013-0.024 0.023-0.037 0.029s-0.030 0.011-0.049 0.014c-0.146 0.029-0.294 0.061-0.443 0.098-0.15 0.038-0.305 0.085-0.466 0.141-0.004 0-0.007 0-0.009 0-0.002 0.002-0.004 0.003-0.006 0.003h-0.020c-0.010 0-0.017-0.004-0.023-0.012-0.006-0.006-0.010-0.012-0.012-0.017-0.029-0.083-0.062-0.189-0.101-0.32-0.036-0.131-0.077-0.276-0.121-0.437s-0.090-0.333-0.138-0.515c-0.048-0.182-0.097-0.367-0.147-0.555s-0.1-0.374-0.15-0.558c-0.048-0.186-0.095-0.362-0.141-0.527-0.017-0.059-0.026-0.102-0.026-0.127 0-0.027 0.015-0.044 0.046-0.052 0.15-0.033 0.305-0.066 0.466-0.101 0.161-0.036 0.314-0.082 0.458-0.138 0.006-0.002 0.014-0.003 0.026-0.003 0.025 0 0.038 0.010 0.040 0.029l0.38 1.934c0.010-0.023 0.026-0.064 0.049-0.124 0.023-0.061 0.051-0.134 0.084-0.219s0.068-0.178 0.106-0.279c0.040-0.102 0.081-0.205 0.121-0.311 0.042-0.106 0.083-0.21 0.124-0.314 0.040-0.106 0.078-0.203 0.112-0.294 0.036-0.090 0.068-0.17 0.095-0.239s0.047-0.121 0.060-0.155zM75.961 29.963c-0.002 0.008-0.003 0.015-0.003 0.023 0 0.006 0 0.011 0 0.017 0 0.048 0.008 0.088 0.023 0.121 0.015 0.031 0.032 0.057 0.049 0.078 0.019 0.019 0.036 0.036 0.052 0.049 0.015 0.012 0.023 0.022 0.023 0.032 0 0.027-0.029 0.052-0.086 0.075l-0.774 0.331c-0.002 0.002-0.009 0.003-0.020 0.003-0.015 0-0.031-0.013-0.046-0.040s-0.031-0.061-0.046-0.104c-0.013-0.040-0.027-0.084-0.040-0.13-0.012-0.048-0.022-0.092-0.032-0.132-0.121 0.14-0.251 0.243-0.391 0.308s-0.279 0.098-0.417 0.098c-0.161 0-0.318-0.036-0.472-0.107s-0.29-0.172-0.409-0.302c-0.119-0.132-0.215-0.292-0.288-0.478-0.071-0.186-0.106-0.395-0.106-0.627 0-0.274 0.039-0.525 0.118-0.751 0.081-0.226 0.189-0.421 0.325-0.584s0.295-0.289 0.475-0.377c0.182-0.090 0.375-0.135 0.579-0.135 0.144 0 0.28 0.030 0.409 0.089 0.129 0.058 0.25 0.132 0.366 0.224 0.011-0.058 0.018-0.104 0.020-0.138s0.006-0.061 0.012-0.081c0.008-0.019 0.021-0.032 0.040-0.037 0.019-0.008 0.051-0.013 0.095-0.017 0.138-0.019 0.275-0.036 0.412-0.052 0.138-0.017 0.282-0.030 0.432-0.037l-0.296 2.683zM75.1 28.878c0.019-0.109 0.032-0.212 0.037-0.308 0.008-0.098 0.013-0.187 0.017-0.268-0.031-0.023-0.064-0.047-0.101-0.072-0.035-0.025-0.073-0.048-0.115-0.069-0.040-0.023-0.083-0.041-0.13-0.055-0.044-0.013-0.091-0.020-0.141-0.020-0.104 0-0.191 0.034-0.262 0.101-0.069 0.067-0.126 0.15-0.17 0.248-0.042 0.098-0.073 0.201-0.092 0.311-0.017 0.109-0.026 0.206-0.026 0.291 0 0.303 0.039 0.526 0.118 0.668 0.081 0.14 0.192 0.21 0.334 0.21 0.058 0 0.122-0.016 0.193-0.049s0.143-0.078 0.216-0.135l0.121-0.852zM78.166 28.322c-0.027 0.201-0.053 0.403-0.078 0.604-0.023 0.2-0.037 0.387-0.043 0.561 0 0.075 0.006 0.137 0.017 0.187s0.028 0.089 0.049 0.118c0.023 0.029 0.050 0.050 0.081 0.063 0.031 0.012 0.065 0.017 0.104 0.017 0.061 0 0.129-0.009 0.201-0.026 0.073-0.019 0.146-0.043 0.219-0.072 0.023-0.010 0.042-0.016 0.058-0.020 0.017-0.006 0.032-0.009 0.043-0.009 0.019 0 0.032 0.009 0.037 0.026 0.008 0.017 0.014 0.048 0.020 0.092 0.008 0.042 0.018 0.1 0.032 0.173s0.036 0.165 0.066 0.276c0.002 0.010 0.003 0.018 0.003 0.026 0.002 0.006 0.003 0.011 0.003 0.017 0 0.027-0.011 0.046-0.032 0.058-0.019 0.012-0.052 0.025-0.098 0.040-0.079 0.027-0.162 0.055-0.25 0.083-0.086 0.027-0.173 0.052-0.259 0.075-0.084 0.023-0.166 0.041-0.245 0.055-0.079 0.015-0.148 0.023-0.207 0.023-0.32 0-0.555-0.080-0.702-0.239-0.146-0.159-0.219-0.402-0.219-0.728 0-0.056 0.002-0.112 0.006-0.17 0.004-0.060 0.009-0.121 0.014-0.184 0.019-0.192 0.036-0.373 0.049-0.544 0.015-0.173 0.031-0.338 0.046-0.495h-0.302c-0.104 0-0.178-0.004-0.225-0.011-0.046-0.010-0.069-0.028-0.069-0.055 0-0.008 0.010-0.028 0.029-0.060 0.019-0.035 0.043-0.075 0.072-0.121 0.031-0.048 0.063-0.099 0.098-0.153s0.067-0.104 0.098-0.15c0.033-0.048 0.060-0.089 0.084-0.124s0.037-0.056 0.043-0.063h0.204c0.017-0.146 0.031-0.268 0.040-0.366 0.011-0.1 0.020-0.182 0.026-0.247 0.008-0.065 0.014-0.115 0.020-0.15 0.006-0.036 0.012-0.063 0.017-0.081 0.008-0.017 0.016-0.028 0.026-0.032 0.012-0.006 0.026-0.011 0.043-0.014 0.086-0.017 0.17-0.033 0.25-0.046 0.081-0.015 0.161-0.031 0.242-0.046s0.162-0.033 0.245-0.052c0.084-0.021 0.172-0.045 0.262-0.072 0.006 0 0.010 0 0.012 0 0.002-0.002 0.006-0.003 0.012-0.003 0.023 0 0.035 0.008 0.035 0.023v0.006c-0.010 0.106-0.025 0.252-0.046 0.44-0.019 0.188-0.041 0.401-0.066 0.639h0.771c0.015 0 0.030 0.006 0.043 0.017 0.015 0.010 0.023 0.027 0.023 0.052 0 0.010-0.012 0.044-0.035 0.104s-0.056 0.137-0.098 0.233l-0.104 0.233c-0.013 0.029-0.028 0.050-0.043 0.063-0.013 0.013-0.042 0.022-0.086 0.026h-0.535zM79.377 29.321c0.025-0.263 0.050-0.523 0.075-0.78s0.047-0.521 0.066-0.791c0.004-0.063 0.010-0.107 0.017-0.13 0.010-0.025 0.032-0.041 0.066-0.049 0.163-0.033 0.334-0.066 0.512-0.101 0.179-0.036 0.351-0.082 0.518-0.138 0.006-0.002 0.014-0.003 0.026-0.003 0.021 0 0.032 0.008 0.032 0.023l-0.259 2.803c-0.006 0.063-0.012 0.107-0.020 0.132-0.008 0.023-0.029 0.038-0.063 0.046-0.163 0.050-0.328 0.106-0.495 0.167s-0.344 0.124-0.53 0.187c-0.006 0.002-0.014 0.003-0.026 0.003-0.021 0-0.032-0.010-0.032-0.029 0-0.002 0.002-0.028 0.006-0.078s0.009-0.114 0.014-0.193c0.008-0.079 0.015-0.167 0.023-0.265s0.015-0.196 0.023-0.294c0.010-0.098 0.018-0.192 0.026-0.282s0.014-0.167 0.020-0.23zM79.593 27.024c0.006-0.083 0.010-0.146 0.012-0.19 0.004-0.044 0.007-0.077 0.009-0.098 0.002-0.023 0.003-0.037 0.003-0.043s0-0.010 0-0.012c0.002-0.004 0.003-0.010 0.003-0.017 0.002-0.010 0.004-0.028 0.006-0.055 0.002-0.029 0.005-0.070 0.009-0.124s0.010-0.128 0.017-0.222c0.004-0.063 0.010-0.106 0.017-0.13 0.010-0.025 0.032-0.041 0.066-0.049 0.163-0.033 0.334-0.066 0.512-0.101 0.178-0.036 0.351-0.083 0.518-0.138 0.006-0.002 0.014-0.003 0.026-0.003 0.006 0.012 0.013 0.019 0.023 0.023l0.009 0.006-0.063 0.789c-0.006 0.063-0.013 0.107-0.023 0.132-0.008 0.025-0.028 0.040-0.060 0.046-0.163 0.031-0.328 0.064-0.495 0.101s-0.344 0.073-0.53 0.109c-0.006 0.002-0.014 0.003-0.026 0.003-0.021 0-0.032-0.010-0.032-0.029zM83.18 27.358c0.008-0.019 0.022-0.029 0.043-0.029 0.004 0 0.008 0.001 0.012 0.003 0.004 0 0.008 0 0.012 0 0.144 0.056 0.292 0.102 0.443 0.138 0.152 0.035 0.302 0.068 0.452 0.101 0.036 0.008 0.055 0.029 0.055 0.063 0 0.025-0.011 0.063-0.035 0.115l-1.186 2.521c-0.015 0.035-0.029 0.062-0.040 0.084s-0.023 0.038-0.035 0.052c-0.011 0.013-0.024 0.023-0.037 0.029s-0.030 0.011-0.049 0.014c-0.146 0.029-0.294 0.061-0.443 0.098-0.15 0.038-0.305 0.085-0.466 0.141-0.004 0-0.007 0-0.009 0-0.002 0.002-0.004 0.003-0.006 0.003h-0.020c-0.010 0-0.017-0.004-0.023-0.012-0.006-0.006-0.010-0.012-0.012-0.017-0.029-0.083-0.062-0.189-0.101-0.32-0.036-0.131-0.077-0.276-0.121-0.437s-0.090-0.333-0.138-0.515c-0.048-0.182-0.097-0.367-0.147-0.555s-0.1-0.374-0.15-0.558c-0.048-0.186-0.095-0.362-0.141-0.527-0.017-0.059-0.026-0.102-0.026-0.127 0-0.027 0.015-0.044 0.046-0.052 0.15-0.033 0.305-0.066 0.466-0.101 0.161-0.036 0.314-0.082 0.458-0.138 0.006-0.002 0.014-0.003 0.026-0.003 0.025 0 0.038 0.010 0.040 0.029l0.38 1.934c0.010-0.023 0.026-0.064 0.049-0.124 0.023-0.061 0.051-0.134 0.083-0.219s0.068-0.178 0.107-0.279c0.040-0.102 0.081-0.205 0.121-0.311 0.042-0.106 0.084-0.21 0.124-0.314 0.040-0.106 0.078-0.203 0.112-0.294 0.036-0.090 0.068-0.17 0.095-0.239s0.047-0.121 0.060-0.155zM85.969 27.329c0.182 0 0.347 0.035 0.495 0.104 0.15 0.067 0.277 0.155 0.382 0.265 0.108 0.107 0.19 0.228 0.248 0.363s0.087 0.269 0.087 0.403c0 0.119-0.036 0.239-0.109 0.36-0.073 0.119-0.176 0.226-0.308 0.322-0.131 0.096-0.288 0.174-0.472 0.233s-0.387 0.089-0.607 0.089c-0.115 0-0.237-0.012-0.363-0.035 0.008 0.083 0.031 0.154 0.072 0.213s0.092 0.108 0.152 0.147c0.061 0.038 0.131 0.067 0.208 0.086 0.078 0.017 0.159 0.026 0.242 0.026 0.092 0 0.18-0.008 0.264-0.023 0.087-0.017 0.169-0.039 0.248-0.066s0.154-0.057 0.227-0.089c0.073-0.033 0.142-0.065 0.207-0.098 0.018-0.004 0.032-0.007 0.043-0.009 0.013-0.004 0.026-0.006 0.038-0.006 0 0-0.001 0.015-0.003 0.046 0 0.031 0 0.074 0 0.13s-0.001 0.123-0.003 0.202c0 0.079-0.001 0.166-0.003 0.262 0.005 0.010 0.009 0.019 0.011 0.029s0.003 0.017 0.003 0.023c0 0.023-0.021 0.048-0.063 0.075s-0.099 0.055-0.168 0.083c-0.067 0.029-0.145 0.057-0.233 0.084-0.086 0.027-0.174 0.051-0.264 0.072-0.090 0.023-0.178 0.040-0.262 0.052-0.084 0.013-0.158 0.020-0.221 0.020-0.207 0-0.409-0.036-0.605-0.109-0.194-0.071-0.366-0.174-0.518-0.308-0.15-0.134-0.269-0.297-0.36-0.489s-0.135-0.408-0.135-0.648c0-0.251 0.043-0.486 0.13-0.705 0.086-0.221 0.207-0.413 0.362-0.576 0.157-0.163 0.344-0.292 0.562-0.386s0.456-0.141 0.717-0.141zM85.934 28.095c-0.079 0-0.152 0.017-0.219 0.052-0.065 0.033-0.125 0.081-0.181 0.144-0.054 0.061-0.101 0.136-0.141 0.224-0.040 0.086-0.072 0.182-0.098 0.288 0.198-0.035 0.362-0.071 0.493-0.109s0.235-0.077 0.313-0.115c0.079-0.040 0.135-0.080 0.167-0.118 0.033-0.040 0.049-0.079 0.049-0.115 0-0.035-0.013-0.067-0.040-0.098-0.025-0.031-0.057-0.058-0.095-0.081s-0.081-0.040-0.127-0.052c-0.044-0.013-0.084-0.020-0.12-0.020z"></path>
</svg>
