<svg width="175" height="36" viewBox="0 0 175 36" fill="none" xmlns="http://www.w3.org/2000/svg">
<path d="M4.2 34.9997L0.52 0.639694H7.24L9.16 22.3197L11.08 0.639694H17.48L19.32 22.3197L21.16 0.639694H27.96L24.2 34.9997H15.96L14.24 18.4397L12.6 34.9997H4.2ZM46.1566 34.9997V23.6797L40.6766 0.639694H47.4766L49.3966 12.2797L51.3166 0.639694H58.1166L52.6366 23.6797V34.9997H46.1566ZM71.8481 34.9997V0.639694H78.7281V29.1597H85.8081V34.9997H71.8481ZM99.7466 34.9997V0.639694H113.507V7.27969H106.747V13.9597H113.227V20.4397H106.747V28.3197H113.947V34.9997H99.7466ZM136.391 35.3197C133.271 35.3197 131.018 34.5464 129.631 32.9997C128.244 31.453 127.551 28.9597 127.551 25.5197V22.1597H134.311V26.4397C134.311 28.1464 134.858 28.9997 135.951 28.9997C136.564 28.9997 136.991 28.8264 137.231 28.4797C137.471 28.1064 137.591 27.493 137.591 26.6397C137.591 25.5197 137.458 24.5997 137.191 23.8797C136.924 23.133 136.578 22.5197 136.151 22.0397C135.751 21.533 135.018 20.7597 133.951 19.7197L130.991 16.7597C128.698 14.5197 127.551 12.0397 127.551 9.31969C127.551 6.38636 128.218 4.15969 129.551 2.63969C130.911 1.09303 132.884 0.319693 135.471 0.319693C138.564 0.319693 140.791 1.14636 142.151 2.79969C143.511 4.42636 144.191 6.98636 144.191 10.4797H137.191L137.151 8.11969C137.151 7.66636 137.018 7.30636 136.751 7.03969C136.511 6.77303 136.164 6.63969 135.711 6.63969C135.178 6.63969 134.778 6.78636 134.511 7.07969C134.244 7.37303 134.111 7.77303 134.111 8.27969C134.111 9.39969 134.751 10.5597 136.031 11.7597L140.031 15.5997C140.964 16.5064 141.738 17.373 142.351 18.1997C142.964 18.9997 143.458 19.9597 143.831 21.0797C144.204 22.173 144.391 23.4797 144.391 24.9997C144.391 28.3864 143.764 30.9597 142.511 32.7197C141.284 34.453 139.244 35.3197 136.391 35.3197ZM166.828 35.3197C163.708 35.3197 161.455 34.5464 160.068 32.9997C158.682 31.453 157.988 28.9597 157.988 25.5197V22.1597H164.748V26.4397C164.748 28.1464 165.295 28.9997 166.388 28.9997C167.002 28.9997 167.428 28.8264 167.668 28.4797C167.908 28.1064 168.028 27.493 168.028 26.6397C168.028 25.5197 167.895 24.5997 167.628 23.8797C167.362 23.133 167.015 22.5197 166.588 22.0397C166.188 21.533 165.455 20.7597 164.388 19.7197L161.428 16.7597C159.135 14.5197 157.988 12.0397 157.988 9.31969C157.988 6.38636 158.655 4.15969 159.988 2.63969C161.348 1.09303 163.322 0.319693 165.908 0.319693C169.002 0.319693 171.228 1.14636 172.588 2.79969C173.948 4.42636 174.628 6.98636 174.628 10.4797H167.628L167.588 8.11969C167.588 7.66636 167.455 7.30636 167.188 7.03969C166.948 6.77303 166.602 6.63969 166.148 6.63969C165.615 6.63969 165.215 6.78636 164.948 7.07969C164.682 7.37303 164.548 7.77303 164.548 8.27969C164.548 9.39969 165.188 10.5597 166.468 11.7597L170.468 15.5997C171.402 16.5064 172.175 17.373 172.788 18.1997C173.402 18.9997 173.895 19.9597 174.268 21.0797C174.642 22.173 174.828 23.4797 174.828 24.9997C174.828 28.3864 174.202 30.9597 172.948 32.7197C171.722 34.453 169.682 35.3197 166.828 35.3197Z" fill="white"/>
</svg>
