<svg width="65" height="65" viewBox="0 0 65 65" fill="none" xmlns="http://www.w3.org/2000/svg">
<path fill-rule="evenodd" clip-rule="evenodd" d="M65 0H0V65H65V0ZM44.583 41.2699C44.8398 40.7931 45 40.2512 45 39.6666V26.3335C45 25.6808 44.8096 25.0769 44.4937 24.5627L36.3735 31.8495L44.583 41.2699ZM43.2993 23.42L32 33.5599L20.7021 23.42C21.1636 23.1597 21.686 23 22.25 23H41.75C42.3135 23 42.8354 23.1597 43.2993 23.42ZM32.5347 35.295L35.1499 32.9464L43.4639 42.4873C42.9658 42.8079 42.3813 43 41.75 43H22.25C21.6182 43 21.0342 42.8079 20.5361 42.4873L28.8491 32.9464L31.4653 35.295C31.5684 35.3873 31.6885 35.4484 31.8149 35.4784C31.876 35.4928 31.938 35.5 32 35.5C32.1914 35.5 32.3818 35.4318 32.5347 35.295ZM19 26.3335C19 25.6808 19.1904 25.0769 19.5063 24.5627L27.6255 31.8479L19.4175 41.27C19.1597 40.7932 19 40.2512 19 39.6666V26.3335Z" fill="#00A2E4"/>
</svg>
