<svg width="65" height="65" viewBox="0 0 65 65" fill="none" xmlns="http://www.w3.org/2000/svg">
<path fill-rule="evenodd" clip-rule="evenodd" d="M65 0H0V65H65V0ZM40.7554 35.6315L44.4619 39.1919C45.1982 39.9014 45.1763 41.0757 44.4126 41.8107L43.3545 42.806L43.3315 42.7865C42.8848 43.1222 42.3696 43.403 41.8188 43.6097C41.3057 43.801 40.8013 43.9219 40.2744 43.9824C40.0327 44.007 34.4272 44.5116 27.4722 37.8314C22.4404 32.9984 20.5864 29.4368 21.0757 25.5397C21.1328 25.0537 21.2578 24.5687 21.4585 24.0605C21.5742 23.7772 21.7109 23.5048 21.8662 23.2473C22.0034 23.0197 22.1553 22.8037 22.3193 22.6022L22.291 22.575L23.3354 21.5659C24.1006 20.8308 25.3237 20.8093 26.0601 21.5166L29.7666 25.0774C30.5034 25.7858 30.4819 26.9597 29.7168 27.6948L29.1011 28.2874L27.8477 29.4893C27.9131 29.5992 27.9795 29.715 28.0483 29.8351C28.7036 30.9684 29.6001 32.521 31.3037 34.1569C33.002 35.7893 34.6157 36.6494 35.7949 37.277L36.1636 37.4739L38.0308 35.6808C38.7949 34.9467 40.0171 34.9252 40.7554 35.6315Z" fill="#00A2E4"/>
</svg>
