<svg width="50" height="50" viewBox="0 0 50 50" fill="none" xmlns="http://www.w3.org/2000/svg">
<path d="M41.6676 -0.000305176H8.33242C3.73037 -0.000305176 0 3.73114 0 8.33397V41.6655C0 46.2683 3.73037 49.9997 8.33242 49.9997H41.6676C46.2696 49.9997 50 46.2683 50 41.6655V8.33397C50 3.73114 46.2696 -0.000305176 41.6676 -0.000305176ZM27.424 33.4039C25.1525 33.2274 24.1993 32.1023 22.4189 31.0208C21.4395 36.1565 20.2431 41.0804 16.6993 43.6521C15.6054 35.8902 18.3055 30.0599 19.5592 23.8712C17.4212 20.2723 19.8165 13.0297 24.3258 14.8148C29.8738 17.0096 19.5211 28.1941 26.4709 29.5912C33.7276 31.0496 36.6899 17.0003 32.1906 12.4316C25.6889 5.83466 13.2648 12.2812 14.7926 21.7264C15.1644 24.0355 17.55 24.736 15.7459 27.9228C11.5848 27.0005 10.3431 23.7185 10.5029 19.3433C10.7602 12.1814 16.9377 7.16727 23.1341 6.47382C30.9703 5.59667 38.3248 9.35018 39.3405 16.7217C40.4837 25.041 35.803 34.0517 27.424 33.4039Z" fill="#404143"/>
</svg>
