<svg width="50" height="50" viewBox="0 0 50 50" fill="none" xmlns="http://www.w3.org/2000/svg">
<path d="M47.6225 28.2667C47.7598 27.2363 47.8388 26.1887 47.8388 25.1223C47.8388 12.326 37.5585 1.95056 24.8796 1.95056C23.6194 1.95056 22.384 2.05559 21.1817 2.25573C19.0263 0.830577 16.4608 0 13.7001 0C6.12949 0 0 6.22294 0 13.9013C0 16.6952 0.810449 19.2906 2.20605 21.4699C2.01807 22.6605 1.92197 23.8798 1.92197 25.1218C1.92197 37.9204 12.1971 48.2946 24.8795 48.2946C26.3108 48.2946 27.7044 48.153 29.0588 47.9047C31.1632 49.2293 33.6422 50 36.2995 50C43.8683 50.0003 50 43.7758 50 36.0982C49.9996 33.1958 49.1249 30.4974 47.6225 28.2667ZM27.0254 42.1998C19.73 42.5856 16.316 40.9478 13.1886 37.9701C9.6959 34.6445 11.0989 30.8508 13.9444 30.6579C16.7884 30.4655 18.4959 33.929 20.0138 34.8922C21.5298 35.852 27.2983 38.0389 30.3451 34.505C33.6632 30.6579 28.1387 28.6673 24.0893 28.0647C18.3077 27.1961 11.0082 24.023 11.5761 17.7697C12.144 11.5204 16.8087 8.31618 21.7177 7.86418C27.9752 7.28784 32.0489 8.82594 35.271 11.6153C38.9964 14.8382 36.9808 18.4412 34.607 18.7311C32.2425 19.0194 29.5871 13.43 24.3734 13.346C18.9997 13.2604 15.3679 19.0194 22.0018 20.6564C28.6392 22.2917 35.7469 22.9636 38.3065 29.1194C40.8682 35.2759 34.327 41.8139 27.0254 42.1998Z" fill="#404143"/>
</svg>
