<svg width="65" height="65" viewBox="0 0 65 65" fill="none" xmlns="http://www.w3.org/2000/svg">
<path fill-rule="evenodd" clip-rule="evenodd" d="M65 0H0V65H65V0ZM33.0786 18.007C33.1333 18.0083 33.188 18.0125 33.2427 18.019C40.8945 18.4066 47 24.7529 47 32.4995C47 40.2541 40.8813 46.6059 33.2188 46.9816C33.1597 46.988 33.1016 47 33.0425 47C33.0015 47 32.9614 46.9919 32.9214 46.9891L32.8159 46.9927C32.7109 46.9963 32.606 47 32.5 47C32.3442 47 32.1899 46.9935 32.0352 46.9886L31.9658 46.9958C31.9443 46.9981 31.9229 47 31.9014 47C31.8062 47 31.7109 46.9875 31.6167 46.9707C24.0312 46.5125 18 40.1981 18 32.4995C18 24.7866 24.0542 18.4631 31.6592 18.0266C31.7852 18.0076 31.9116 18.0017 32.0386 18.012L32.1484 18.0083C32.2651 18.0042 32.3818 18 32.5 18C32.5962 18 32.6919 18.0033 32.7876 18.0066L32.9194 18.0109C32.9727 18.0068 33.0259 18.0056 33.0786 18.007ZM38.2603 25.1189C39.2544 24.9945 40.0078 24.842 40.5723 24.6927C39.3486 23.4283 37.8325 22.4539 36.1333 21.8713C36.853 22.8083 37.5986 23.905 38.2603 25.1189ZM36.5093 35.8243C36.6943 35.2705 36.8433 34.7037 36.9438 34.1282H28C28.1392 34.9283 28.3711 35.7107 28.665 36.4636C29.7803 36.3828 31.0444 36.3285 32.481 36.3112C33.9185 36.2948 35.1865 36.3241 36.3062 36.3882C36.3779 36.2019 36.4458 36.0139 36.5093 35.8243ZM28.6885 28.4869C28.3838 29.2556 28.1431 30.0543 28.0005 30.8707H36.9434C36.8062 30.0813 36.5771 29.3088 36.2866 28.5635C35.3882 28.614 34.397 28.6427 33.2974 28.6427L32.8022 28.6409L32.4805 28.6378C31.0542 28.6205 29.7979 28.5668 28.6885 28.4869ZM34.6177 25.3693C33.897 24.2622 33.1289 23.3024 32.4717 22.5548C31.8247 23.2915 31.0693 24.2334 30.3579 25.3198C31.022 25.3497 31.7393 25.3708 32.52 25.3801C33.2754 25.3893 33.9722 25.3844 34.6177 25.3693ZM26.7383 25.0195C27.3794 23.8573 28.0957 22.8051 28.7896 21.9001C27.1562 22.4734 25.6909 23.4055 24.4995 24.614C25.0552 24.7513 25.7876 24.8942 26.7383 25.0195ZM25.3618 28.1096C24.1182 27.9044 23.186 27.6597 22.4878 27.411C21.9434 28.4783 21.5688 29.6422 21.3892 30.8707H24.71C24.8354 29.9208 25.062 28.9973 25.3618 28.1096ZM24.71 34.1282H21.3892C21.5659 35.3405 21.9341 36.4897 22.4673 37.5457C22.812 37.4218 23.2153 37.2988 23.6855 37.1812C24.1655 37.061 24.7158 36.9465 25.3462 36.842C25.0542 35.9691 24.833 35.0614 24.71 34.1282ZM26.7124 39.9332C25.752 40.0609 25.0166 40.2057 24.4619 40.3447C25.6602 41.5723 27.1382 42.5201 28.7896 43.0999C28.0864 42.183 27.3608 41.1141 26.7124 39.9332ZM30.3188 39.6309C31.041 40.7405 31.8105 41.7009 32.4692 42.4484C33.1362 41.6889 33.9185 40.7101 34.6499 39.5803C33.9951 39.5646 33.2881 39.5592 32.52 39.569C31.7241 39.5782 30.9941 39.6005 30.3188 39.6309ZM38.2866 39.8323C37.6182 41.0657 36.8623 42.1791 36.1328 43.1287C37.8506 42.5402 39.3799 41.55 40.6104 40.2649C40.0469 40.114 39.2896 39.9581 38.2866 39.8323ZM39.6343 36.7335C40.9033 36.9386 41.8564 37.1987 42.5698 37.4691C43.0825 36.4343 43.4375 35.3116 43.6104 34.1282H40.2339C40.1694 34.618 40.0781 35.1008 39.9634 35.5753C39.8687 35.9674 39.7583 36.3538 39.6343 36.7335ZM40.2344 30.8707H43.6108C43.4355 29.671 43.0732 28.5337 42.5488 27.4869C41.8345 27.7562 40.8833 28.0146 39.6191 28.2188C39.9009 29.0728 40.1138 29.9598 40.2344 30.8707Z" fill="#00A2E4"/>
</svg>
